<?xml version="1.0" encoding="utf-8"?>
<!-- Generator: Adobe Illustrator 18.1.0, SVG Export Plug-In . SVG Version: 6.00 Build 0)  -->
<svg version="1.1" id="Icons" xmlns="http://www.w3.org/2000/svg" xmlns:xlink="http://www.w3.org/1999/xlink" x="0px" y="0px"
	 viewBox="0 0 42 36" enable-background="new 0 0 42 36" xml:space="preserve">
<g>
	<g>
		<defs>
			<rect id="SVGID_29_" x="-3" width="48" height="48"/>
		</defs>
		<clipPath id="SVGID_2_">
			<use xlink:href="#SVGID_29_"  overflow="visible"/>
		</clipPath>
		<g clip-path="url(#SVGID_2_)">
			<defs>
				<rect id="SVGID_31_" x="-3" width="48" height="48"/>
			</defs>
			<clipPath id="SVGID_4_">
				<use xlink:href="#SVGID_31_"  overflow="visible"/>
			</clipPath>
			<path clip-path="url(#SVGID_4_)" fill="#D5DCE2" d="M32.995,18.978l-0.687-0.316l-0.056-0.755
				c-0.18-2.431-2.233-4.335-4.674-4.335c-0.431,0-0.867,0.061-1.297,0.182l-0.754,0.211l-0.532-0.573
				c-1.18-1.269-2.851-1.997-4.585-1.997c-2.969,0-5.55,2.116-6.134,5.032L14.14,17.11l-0.649,0.258
				c-2.188,0.867-3.658,3.027-3.658,5.376c0,3.189,2.596,5.785,5.786,5.785h15.294c2.756,0,4.998-2.245,4.998-5.005
				C35.911,21.578,34.767,19.794,32.995,18.978"/>
			<path clip-path="url(#SVGID_4_)" fill="#D5DCE2" d="M8.634,22.744c0-2.836,1.774-5.445,4.415-6.491l0.042-0.017l0.009-0.044
				c0.696-3.475,3.77-5.996,7.311-5.996c2.066,0,4.057,0.867,5.463,2.379l0.035,0.038l0.049-0.014
				c0.535-0.15,1.081-0.226,1.621-0.226c0.066,0,0.128,0.016,0.194,0.019c-0.164-1.61-1.326-3.213-3.156-4.058
				c-1.697-0.783-3.514-0.703-4.833,0.043c-0.097-0.1-0.192-0.202-0.298-0.297c-2.112-1.894-5.244-2.546-7.982-1.068
				c-1.869,1.009-3.108,2.892-3.525,4.974l-0.082,0.409c-0.006,0.03-0.026,0.054-0.054,0.065l-0.407,0.161
				c-2.257,0.896-3.983,2.91-4.229,5.327c-0.357,3.489,2.14,6.481,5.436,6.934c0.009,0.001,0.136,0.001,0.329,0
				C8.754,24.208,8.634,23.49,8.634,22.744"/>
			<path clip-path="url(#SVGID_4_)" fill="#D5DCE2" d="M32.141,9.901c-0.212-4.53-3.94-8.14-8.522-8.14
				c-2.832,0-5.334,1.384-6.889,3.505c1.186,0.308,2.308,0.879,3.286,1.687c0.666-0.245,1.393-0.372,2.143-0.372
				c0.996,0,2.02,0.229,2.961,0.663c2.158,0.997,3.632,2.922,3.847,5.025l0.031,0.299c2.404,0.606,4.261,2.685,4.451,5.25
				l0.004,0.049l0.045,0.021c2.067,0.952,3.429,2.972,3.583,5.218c1.091-1.403,1.747-3.161,1.747-5.076
				C38.828,14.001,35.951,10.647,32.141,9.901"/>
		</g>
	</g>
</g>
<g>
	<g>
		<defs>
			<rect id="SVGID_183_" y="-1" width="48" height="48"/>
		</defs>
		<clipPath id="SVGID_6_">
			<use xlink:href="#SVGID_183_"  overflow="visible"/>
		</clipPath>
		<g clip-path="url(#SVGID_6_)">
			<defs>
				<rect id="SVGID_185_" x="13.533" y="29.375" width="6" height="6"/>
			</defs>
			<clipPath id="SVGID_8_">
				<use xlink:href="#SVGID_185_"  overflow="visible"/>
			</clipPath>
			<path clip-path="url(#SVGID_8_)" fill="#38C0E0" d="M18.809,32.641l-1.723-0.422l1.26-1.249c0.098-0.099,0.1-0.26,0-0.359
				l-0.037-0.036c-0.098-0.101-0.26-0.101-0.359-0.002l-1.262,1.251l-0.42-1.726c-0.033-0.136-0.172-0.22-0.309-0.186l-0.049,0.012
				c-0.136,0.032-0.222,0.173-0.189,0.308l0.432,1.761l-1.762-0.43c-0.135-0.033-0.275,0.05-0.309,0.187l-0.011,0.049
				c-0.036,0.138,0.051,0.276,0.187,0.308l1.721,0.421l-1.258,1.248c-0.099,0.1-0.099,0.261-0.002,0.361l0.037,0.036
				c0.1,0.1,0.26,0.1,0.36,0.002l1.261-1.254l0.424,1.729c0.033,0.136,0.172,0.221,0.307,0.186l0.049-0.011
				c0.138-0.034,0.224-0.172,0.189-0.308l-0.43-1.761l1.76,0.429c0.135,0.034,0.274-0.051,0.307-0.186l0.013-0.049
				C19.03,32.814,18.944,32.674,18.809,32.641"/>
		</g>
		<g clip-path="url(#SVGID_6_)">
			<defs>
				<rect id="SVGID_187_" x="23.832" y="29.375" width="6" height="6"/>
			</defs>
			<clipPath id="SVGID_10_">
				<use xlink:href="#SVGID_187_"  overflow="visible"/>
			</clipPath>
			<path clip-path="url(#SVGID_10_)" fill-rule="evenodd" clip-rule="evenodd" fill="#009EFF" d="M27.857,33.775
				c-1.01,1.95-3.316,0.674-2.346-1.208c0.823-1.6,2.801-2.567,2.801-2.567S28.656,32.226,27.857,33.775"/>
		</g>
	</g>
</g>
</svg>
