<?xml version="1.0" encoding="utf-8"?>
<!-- Generator: Adobe Illustrator 18.1.0, SVG Export Plug-In . SVG Version: 6.00 Build 0)  -->
<svg version="1.1" id="Icons" xmlns="http://www.w3.org/2000/svg" xmlns:xlink="http://www.w3.org/1999/xlink" x="0px" y="0px"
	 viewBox="0 0 42 42" enable-background="new 0 0 42 42" xml:space="preserve">
<g>
	<g>
		<defs>
			<rect id="SVGID_21_" x="-3" width="48" height="48"/>
		</defs>
		<clipPath id="SVGID_2_">
			<use xlink:href="#SVGID_21_"  overflow="visible"/>
		</clipPath>
		<g clip-path="url(#SVGID_2_)">
			<defs>
				<rect id="SVGID_23_" x="-3" width="48" height="48"/>
			</defs>
			<clipPath id="SVGID_4_">
				<use xlink:href="#SVGID_23_"  overflow="visible"/>
			</clipPath>
			<path clip-path="url(#SVGID_4_)" fill="#D5DCE2" d="M32.995,18.978l-0.687-0.316l-0.056-0.755
				c-0.18-2.431-2.233-4.335-4.674-4.335c-0.431,0-0.867,0.061-1.297,0.182l-0.754,0.211l-0.532-0.573
				c-1.18-1.269-2.851-1.997-4.585-1.997c-2.969,0-5.55,2.116-6.134,5.032L14.14,17.11l-0.649,0.258
				c-2.188,0.867-3.658,3.027-3.658,5.376c0,3.189,2.596,5.785,5.786,5.785h15.294c2.756,0,4.998-2.245,4.998-5.005
				C35.911,21.578,34.767,19.794,32.995,18.978"/>
			<path clip-path="url(#SVGID_4_)" fill="#D5DCE2" d="M8.634,22.744c0-2.836,1.774-5.445,4.415-6.491l0.042-0.017l0.009-0.044
				c0.696-3.475,3.77-5.996,7.311-5.996c2.066,0,4.057,0.867,5.463,2.379l0.035,0.038l0.049-0.014
				c0.535-0.15,1.081-0.226,1.621-0.226c0.066,0,0.128,0.016,0.194,0.019c-0.164-1.61-1.326-3.213-3.156-4.058
				c-1.697-0.783-3.514-0.703-4.833,0.043c-0.097-0.1-0.192-0.202-0.298-0.297c-2.112-1.894-5.244-2.546-7.982-1.068
				c-1.869,1.009-3.108,2.892-3.525,4.974l-0.082,0.409c-0.006,0.03-0.026,0.054-0.054,0.065l-0.407,0.161
				c-2.257,0.896-3.983,2.91-4.229,5.327c-0.357,3.489,2.14,6.481,5.436,6.934c0.009,0.001,0.136,0.001,0.329,0
				C8.754,24.208,8.634,23.49,8.634,22.744"/>
			<path clip-path="url(#SVGID_4_)" fill="#D5DCE2" d="M32.141,9.901c-0.212-4.53-3.94-8.14-8.522-8.14
				c-2.832,0-5.334,1.384-6.889,3.505c1.186,0.308,2.308,0.879,3.286,1.687c0.666-0.245,1.393-0.372,2.143-0.372
				c0.996,0,2.02,0.229,2.961,0.663c2.158,0.997,3.632,2.922,3.847,5.025l0.031,0.299c2.404,0.606,4.261,2.685,4.451,5.25
				l0.004,0.049l0.045,0.021c2.067,0.952,3.429,2.972,3.583,5.218c1.091-1.403,1.747-3.161,1.747-5.076
				C38.828,14.001,35.951,10.647,32.141,9.901"/>
		</g>
	</g>
</g>
<g>
	<g>
		<defs>
			<rect id="SVGID_159_" y="-1" width="48" height="48"/>
		</defs>
		<clipPath id="SVGID_6_">
			<use xlink:href="#SVGID_159_"  overflow="visible"/>
		</clipPath>
		<g clip-path="url(#SVGID_6_)">
			<defs>
				<rect id="SVGID_161_" x="10.497" y="29.375" width="6" height="6"/>
			</defs>
			<clipPath id="SVGID_8_">
				<use xlink:href="#SVGID_161_"  overflow="visible"/>
			</clipPath>
			<path clip-path="url(#SVGID_8_)" fill-rule="evenodd" clip-rule="evenodd" fill="#009EFF" d="M14.522,33.775
				c-1.01,1.95-3.316,0.674-2.346-1.208c0.823-1.6,2.801-2.567,2.801-2.567S15.321,32.226,14.522,33.775"/>
		</g>
		<g clip-path="url(#SVGID_6_)">
			<defs>
				<rect id="SVGID_163_" x="18.267" y="29.375" width="6" height="6"/>
			</defs>
			<clipPath id="SVGID_10_">
				<use xlink:href="#SVGID_163_"  overflow="visible"/>
			</clipPath>
			<path clip-path="url(#SVGID_10_)" fill-rule="evenodd" clip-rule="evenodd" fill="#009EFF" d="M22.293,33.775
				c-1.01,1.95-3.316,0.674-2.346-1.208C20.77,30.967,22.748,30,22.748,30S23.092,32.226,22.293,33.775"/>
		</g>
		<g clip-path="url(#SVGID_6_)">
			<defs>
				<rect id="SVGID_165_" x="26.039" y="29.375" width="6" height="6"/>
			</defs>
			<clipPath id="SVGID_12_">
				<use xlink:href="#SVGID_165_"  overflow="visible"/>
			</clipPath>
			<path clip-path="url(#SVGID_12_)" fill-rule="evenodd" clip-rule="evenodd" fill="#009EFF" d="M30.064,33.775
				c-1.01,1.95-3.316,0.674-2.346-1.208c0.823-1.6,2.801-2.567,2.801-2.567S30.863,32.226,30.064,33.775"/>
		</g>
		<g clip-path="url(#SVGID_6_)">
			<defs>
				<rect id="SVGID_167_" x="6.63" y="35.185" width="5.999" height="5.999"/>
			</defs>
			<clipPath id="SVGID_14_">
				<use xlink:href="#SVGID_167_"  overflow="visible"/>
			</clipPath>
			<path clip-path="url(#SVGID_14_)" fill-rule="evenodd" clip-rule="evenodd" fill="#009EFF" d="M10.655,39.585
				c-1.01,1.95-3.316,0.674-2.346-1.208c0.823-1.6,2.801-2.567,2.801-2.567S11.454,38.036,10.655,39.585"/>
		</g>
		<g clip-path="url(#SVGID_6_)">
			<defs>
				<rect id="SVGID_169_" x="14.401" y="35.185" width="6" height="5.999"/>
			</defs>
			<clipPath id="SVGID_16_">
				<use xlink:href="#SVGID_169_"  overflow="visible"/>
			</clipPath>
			<path clip-path="url(#SVGID_16_)" fill-rule="evenodd" clip-rule="evenodd" fill="#009EFF" d="M18.426,39.585
				c-1.01,1.95-3.316,0.674-2.346-1.208c0.823-1.6,2.801-2.567,2.801-2.567S19.225,38.036,18.426,39.585"/>
		</g>
		<g clip-path="url(#SVGID_6_)">
			<defs>
				<rect id="SVGID_171_" x="22.171" y="35.185" width="6" height="5.999"/>
			</defs>
			<clipPath id="SVGID_18_">
				<use xlink:href="#SVGID_171_"  overflow="visible"/>
			</clipPath>
			<path clip-path="url(#SVGID_18_)" fill-rule="evenodd" clip-rule="evenodd" fill="#009EFF" d="M26.197,39.585
				c-1.01,1.95-3.316,0.674-2.346-1.208c0.823-1.6,2.801-2.567,2.801-2.567S26.996,38.036,26.197,39.585"/>
		</g>
	</g>
</g>
</svg>
