<?xml version="1.0" encoding="utf-8"?>
<!-- Generator: Adobe Illustrator 18.1.0, SVG Export Plug-In . SVG Version: 6.00 Build 0)  -->
<svg version="1.1" xmlns="http://www.w3.org/2000/svg" xmlns:xlink="http://www.w3.org/1999/xlink" x="0px" y="0px"
	 viewBox="0 0 42 42" enable-background="new 0 0 42 42" xml:space="preserve">
<g id="Icons_1_">
	<g>
		<g>
			<defs>
				<rect id="SVGID_125_" x="-3" width="48" height="48"/>
			</defs>
			<clipPath id="SVGID_2_">
				<use xlink:href="#SVGID_125_"  overflow="visible"/>
			</clipPath>
			<g clip-path="url(#SVGID_2_)">
				<defs>
					<rect id="SVGID_127_" x="-3" width="48" height="48"/>
				</defs>
				<clipPath id="SVGID_4_">
					<use xlink:href="#SVGID_127_"  overflow="visible"/>
				</clipPath>
				<path clip-path="url(#SVGID_4_)" fill="#FFCE00" d="M28.741,8.578c0.801,1.045,1.376,2.223,1.697,3.477l3.633-3.916
					L28.741,8.578z"/>
				<path clip-path="url(#SVGID_4_)" fill="#FFCE00" d="M24.746,5.504C25.939,6,27.026,6.733,27.953,7.68l1.196-5.22L24.746,5.504z"
					/>
				<path clip-path="url(#SVGID_4_)" fill="#FFCE00" d="M21.402,4.758c0.76,0.031,1.5,0.158,2.216,0.356L22.038,0l-2.296,4.846
					C20.291,4.775,20.846,4.735,21.402,4.758"/>
				<path clip-path="url(#SVGID_4_)" fill="#FFCE00" d="M15.759,6.3c0.066-0.043,0.132-0.086,0.199-0.127
					c0.803-0.492,1.682-0.87,2.617-1.112l-3.926-3.639l0.439,5.341c0.049-0.037,0.102-0.068,0.15-0.104
					C15.408,6.534,15.582,6.415,15.759,6.3"/>
				<path clip-path="url(#SVGID_4_)" fill="#FFCE00" d="M12.922,9.084c0.021-0.031,0.041-0.062,0.062-0.092
					c0.164-0.238,0.338-0.469,0.522-0.692c0.017-0.02,0.032-0.041,0.049-0.061c0.204-0.242,0.416-0.478,0.642-0.7L8.968,6.345
					l3.046,4.407C12.262,10.166,12.568,9.609,12.922,9.084"/>
				<path clip-path="url(#SVGID_4_)" fill="#FFCE00" d="M17.984,10.082c2.066,0,4.057,0.867,5.463,2.38l0.035,0.037l0.049-0.013
					c0.535-0.151,1.081-0.227,1.621-0.227c1.724,0,3.275,0.773,4.36,1.978c-0.057-2.053-0.835-3.993-2.238-5.518
					c-1.543-1.676-3.646-2.65-5.922-2.743c-0.642-0.027-1.285,0.019-1.908,0.135c-3.215,0.595-5.774,3.023-6.646,6.08
					C14.154,10.878,15.995,10.082,17.984,10.082"/>
				<path clip-path="url(#SVGID_4_)" fill="#D5DCE2" d="M30.569,18.865l-0.687-0.316l-0.056-0.755
					c-0.18-2.431-2.233-4.335-4.674-4.335c-0.431,0-0.867,0.061-1.297,0.182l-0.754,0.211l-0.532-0.573
					c-1.18-1.269-2.851-1.997-4.585-1.997c-2.969,0-5.55,2.116-6.134,5.032l-0.137,0.683l-0.648,0.258
					c-2.188,0.867-3.658,3.027-3.658,5.376c0,3.189,2.596,5.785,5.786,5.785h15.294c2.756,0,4.998-2.245,4.998-5.005
					C33.485,21.465,32.341,19.681,30.569,18.865"/>
				<path clip-path="url(#SVGID_4_)" fill="#FFCE00" d="M30.615,16.025c0.117,0.298,0.21,0.605,0.277,0.924l4.6-1.424l-4.838-2.29
					c0.07,0.545,0.102,1.098,0.078,1.658C30.717,15.276,30.677,15.653,30.615,16.025"/>
				<path clip-path="url(#SVGID_4_)" fill="#FFCE00" d="M11.263,14.325c0.001-0.079-0.005-0.156-0.002-0.235
					c0.031-0.761,0.16-1.501,0.362-2.214l-5.116,1.58l4.31,2.041C10.933,15.09,11.084,14.699,11.263,14.325"/>
			</g>
		</g>
	</g>
</g>
<g id="Plus">
	<g>
		<g>
			<defs>
				<rect id="SVGID_277_" x="-2" y="-1" width="48" height="48"/>
			</defs>
			<clipPath id="SVGID_6_">
				<use xlink:href="#SVGID_277_"  overflow="visible"/>
			</clipPath>
			<g clip-path="url(#SVGID_6_)">
				<defs>
					<rect id="SVGID_279_" x="24.27" y="29.375" width="6" height="6"/>
				</defs>
				<clipPath id="SVGID_8_">
					<use xlink:href="#SVGID_279_"  overflow="visible"/>
				</clipPath>
				<path clip-path="url(#SVGID_8_)" fill="#38C0E0" d="M29.546,32.641l-1.723-0.422l1.26-1.249c0.098-0.099,0.1-0.26,0-0.359
					l-0.037-0.036c-0.098-0.101-0.26-0.101-0.359-0.002l-1.262,1.251l-0.42-1.726c-0.033-0.136-0.172-0.22-0.309-0.186l-0.049,0.012
					c-0.136,0.032-0.222,0.173-0.189,0.308l0.432,1.761l-1.762-0.43c-0.135-0.033-0.275,0.05-0.309,0.187l-0.011,0.049
					c-0.036,0.138,0.051,0.276,0.187,0.308l1.721,0.421l-1.258,1.248c-0.099,0.1-0.099,0.261-0.002,0.361l0.037,0.036
					c0.1,0.1,0.26,0.1,0.36,0.002l1.261-1.254l0.424,1.729c0.033,0.136,0.172,0.221,0.307,0.186l0.049-0.011
					c0.138-0.034,0.224-0.172,0.189-0.308l-0.43-1.761l1.76,0.429c0.135,0.034,0.274-0.051,0.307-0.186l0.013-0.049
					C29.767,32.814,29.681,32.674,29.546,32.641"/>
			</g>
			<g clip-path="url(#SVGID_6_)">
				<defs>
					<rect id="SVGID_281_" x="9.599" y="29.375" width="6" height="6"/>
				</defs>
				<clipPath id="SVGID_10_">
					<use xlink:href="#SVGID_281_"  overflow="visible"/>
				</clipPath>
				<path clip-path="url(#SVGID_10_)" fill-rule="evenodd" clip-rule="evenodd" fill="#009EFF" d="M13.625,33.775
					c-1.01,1.95-3.316,0.674-2.346-1.208C12.102,30.967,14.08,30,14.08,30S14.424,32.226,13.625,33.775"/>
			</g>
			<polygon clip-path="url(#SVGID_6_)" fill-rule="evenodd" clip-rule="evenodd" fill="#FF7700" points="22.465,32.428 
				20.315,32.395 22.078,29.312 19.357,29.335 17.048,33.935 19.058,33.935 16.236,40.906 			"/>
			<g clip-path="url(#SVGID_6_)">
				<defs>
					<rect id="SVGID_283_" x="8.819" y="35.375" width="6" height="5.999"/>
				</defs>
				<clipPath id="SVGID_12_">
					<use xlink:href="#SVGID_283_"  overflow="visible"/>
				</clipPath>
				<path clip-path="url(#SVGID_12_)" fill="#38C0E0" d="M14.095,38.641l-1.723-0.422l1.26-1.249c0.098-0.099,0.1-0.26,0-0.359
					l-0.037-0.036c-0.098-0.101-0.26-0.101-0.359-0.002l-1.262,1.251l-0.42-1.726c-0.033-0.136-0.172-0.22-0.309-0.186l-0.049,0.012
					c-0.136,0.032-0.222,0.173-0.189,0.308l0.432,1.761l-1.762-0.43c-0.135-0.033-0.275,0.05-0.309,0.187l-0.011,0.049
					c-0.036,0.138,0.051,0.276,0.187,0.308l1.721,0.421l-1.258,1.248c-0.099,0.1-0.099,0.261-0.002,0.361l0.037,0.036
					c0.1,0.1,0.26,0.1,0.36,0.002l1.261-1.254l0.424,1.729c0.033,0.136,0.172,0.221,0.307,0.186l0.049-0.011
					c0.138-0.034,0.224-0.172,0.189-0.308l-0.43-1.761l1.76,0.429c0.135,0.034,0.274-0.051,0.307-0.186l0.013-0.049
					C14.316,38.814,14.23,38.674,14.095,38.641"/>
			</g>
			<g clip-path="url(#SVGID_6_)">
				<defs>
					<rect id="SVGID_285_" x="22.177" y="35.375" width="5.999" height="5.999"/>
				</defs>
				<clipPath id="SVGID_14_">
					<use xlink:href="#SVGID_285_"  overflow="visible"/>
				</clipPath>
				<path clip-path="url(#SVGID_14_)" fill-rule="evenodd" clip-rule="evenodd" fill="#009EFF" d="M26.202,39.775
					c-1.01,1.95-3.316,0.674-2.346-1.208c0.823-1.6,2.801-2.567,2.801-2.567S27.001,38.226,26.202,39.775"/>
			</g>
		</g>
	</g>
</g>
</svg>
