<?xml version="1.0" encoding="utf-8"?>
<!-- Generator: Adobe Illustrator 18.1.0, SVG Export Plug-In . SVG Version: 6.00 Build 0)  -->
<svg version="1.1" xmlns="http://www.w3.org/2000/svg" xmlns:xlink="http://www.w3.org/1999/xlink" x="0px" y="0px"
	 viewBox="0 0 42 42" enable-background="new 0 0 42 42" xml:space="preserve">
<g id="Icons_1_">
	<g>
		<g>
			<defs>
				<rect id="SVGID_9_" x="-3" width="48" height="48"/>
			</defs>
			<clipPath id="SVGID_2_">
				<use xlink:href="#SVGID_9_"  overflow="visible"/>
			</clipPath>
			<g clip-path="url(#SVGID_2_)">
				<defs>
					<rect id="SVGID_11_" x="-3" width="48" height="48"/>
				</defs>
				<clipPath id="SVGID_4_">
					<use xlink:href="#SVGID_11_"  overflow="visible"/>
				</clipPath>
				<path clip-path="url(#SVGID_4_)" fill="#FFCE00" d="M34.767,13.838c0.056,0.56,0.074,1.127,0.035,1.699
					c-0.053,0.78-0.204,1.535-0.431,2.26l5.285-1.482L34.767,13.838z"/>
				<path clip-path="url(#SVGID_4_)" fill="#FFCE00" d="M32.937,9.019c0.791,1.091,1.347,2.313,1.642,3.605l3.825-3.908
					L32.937,9.019z"/>
				<path clip-path="url(#SVGID_4_)" fill="#FFCE00" d="M28.932,5.763c1.207,0.54,2.3,1.32,3.223,2.315l1.367-5.31L28.932,5.763z"/>
				<path clip-path="url(#SVGID_4_)" fill="#FFCE00" d="M25.53,4.909c0.777,0.052,1.531,0.203,2.258,0.425l-1.477-5.277
					l-2.483,4.896C24.393,4.896,24.962,4.87,25.53,4.909"/>
				<path clip-path="url(#SVGID_4_)" fill="#D5DCE2" d="M33.264,18.865l-0.687-0.316l-0.056-0.754
					c-0.18-2.432-2.233-4.336-4.674-4.336c-0.431,0-0.867,0.062-1.297,0.182l-0.754,0.211l-0.532-0.573
					c-1.18-1.269-2.851-1.997-4.585-1.997c-2.969,0-5.55,2.116-6.134,5.032l-0.136,0.683l-0.649,0.258
					c-2.188,0.867-3.658,3.027-3.658,5.376c0,3.189,2.596,5.785,5.786,5.785h15.294c2.756,0,4.998-2.245,4.998-5.005
					C36.18,21.465,35.036,19.681,33.264,18.865"/>
				<path clip-path="url(#SVGID_4_)" fill="#FFCE00" d="M21.261,7.005l0.006,0.006c0.512-0.153,1.044-0.232,1.57-0.232
					c0.91,0,1.783,0.224,2.595,0.667c1.359,0.742,2.353,1.869,2.875,3.258c0.004,0.01,0.306,0.827,0.271,1.6
					c0.038,0.005,0.072,0.018,0.11,0.024c0.189,0.027,0.37,0.074,0.553,0.119c0.137,0.034,0.277,0.06,0.411,0.103
					c0.154,0.051,0.299,0.12,0.448,0.183c0.153,0.064,0.31,0.12,0.456,0.196c0.011,0.006,0.02,0.013,0.03,0.019
					c1.337,0.709,2.363,1.922,2.842,3.387c0.003,0.01,0.009,0.02,0.013,0.031c0.053-0.301,0.096-0.604,0.116-0.913
					c0.162-2.326-0.595-4.573-2.126-6.33c-1.533-1.758-3.659-2.813-5.985-2.97c-0.657-0.045-1.316-0.015-1.957,0.086
					c-0.727,0.114-1.423,0.322-2.078,0.607c-0.064,0.034-0.137,0.071-0.205,0.106C21.223,6.971,21.243,6.986,21.261,7.005"/>
				<path clip-path="url(#SVGID_4_)" fill="#FFCE00" d="M20.224,6.06c0.753-0.4,1.553-0.723,2.404-0.919L18.71,1.309l0.216,3.905
					C19.376,5.453,19.811,5.732,20.224,6.06"/>
				<path clip-path="url(#SVGID_4_)" fill="#D5DCE2" d="M8.903,22.63c0-2.836,1.774-5.445,4.415-6.491l0.043-0.017l0.008-0.044
					c0.696-3.475,3.77-5.996,7.311-5.996c2.066,0,4.057,0.867,5.463,2.379l0.035,0.038l0.049-0.014
					c0.379-0.106,0.764-0.162,1.148-0.193c0.031-0.407-0.149-1.054-0.191-1.166c-0.39-1.036-1.143-1.979-2.327-2.626
					c-1.27-0.693-2.69-0.665-3.891-0.09c-0.053-0.033-0.087-0.053-0.087-0.053l-0.497-0.535C19.5,6.874,18.403,6.125,17.161,5.76
					c-4.14-1.218-8.171,1.428-8.96,5.371l-0.155,0.77l-0.521,0.207c-2.343,0.93-4.089,3.053-4.306,5.564
					c-0.267,3.09,1.637,5.778,4.352,6.727c0,0,0.745,0.205,1.67,0.37C9.023,24.094,8.903,23.376,8.903,22.63"/>
			</g>
		</g>
	</g>
</g>
<g id="Plus">
	<g>
		<g>
			<defs>
				<rect id="SVGID_419_" x="-2" y="-1" width="48" height="48"/>
			</defs>
			<clipPath id="SVGID_6_">
				<use xlink:href="#SVGID_419_"  overflow="visible"/>
			</clipPath>
			<g clip-path="url(#SVGID_6_)">
				<defs>
					<rect id="SVGID_421_" x="8.824" y="35.185" width="6" height="5.999"/>
				</defs>
				<clipPath id="SVGID_8_">
					<use xlink:href="#SVGID_421_"  overflow="visible"/>
				</clipPath>
				<path clip-path="url(#SVGID_8_)" fill-rule="evenodd" clip-rule="evenodd" fill="#009EFF" d="M12.85,39.585
					c-1.01,1.95-3.316,0.674-2.346-1.208c0.823-1.6,2.801-2.567,2.801-2.567S13.649,38.036,12.85,39.585"/>
			</g>
			<g clip-path="url(#SVGID_6_)">
				<defs>
					<rect id="SVGID_423_" x="19.532" y="35.185" width="6" height="5.999"/>
				</defs>
				<clipPath id="SVGID_10_">
					<use xlink:href="#SVGID_423_"  overflow="visible"/>
				</clipPath>
				<path clip-path="url(#SVGID_10_)" fill-rule="evenodd" clip-rule="evenodd" fill="#009EFF" d="M23.557,39.585
					c-1.01,1.95-3.316,0.674-2.346-1.208c0.823-1.6,2.801-2.567,2.801-2.567S24.356,38.036,23.557,39.585"/>
			</g>
			<g clip-path="url(#SVGID_6_)">
				<defs>
					<rect id="SVGID_425_" x="13.268" y="29.375" width="5.999" height="6"/>
				</defs>
				<clipPath id="SVGID_12_">
					<use xlink:href="#SVGID_425_"  overflow="visible"/>
				</clipPath>
				<path clip-path="url(#SVGID_12_)" fill-rule="evenodd" clip-rule="evenodd" fill="#009EFF" d="M17.293,33.775
					c-1.01,1.95-3.316,0.674-2.346-1.208C15.77,30.967,17.748,30,17.748,30S18.092,32.226,17.293,33.775"/>
			</g>
			<g clip-path="url(#SVGID_6_)">
				<defs>
					<rect id="SVGID_427_" x="24.111" y="29.375" width="5.999" height="6"/>
				</defs>
				<clipPath id="SVGID_14_">
					<use xlink:href="#SVGID_427_"  overflow="visible"/>
				</clipPath>
				<path clip-path="url(#SVGID_14_)" fill-rule="evenodd" clip-rule="evenodd" fill="#009EFF" d="M28.136,33.775
					c-1.01,1.95-3.316,0.674-2.346-1.208c0.823-1.6,2.801-2.567,2.801-2.567S28.935,32.226,28.136,33.775"/>
			</g>
		</g>
	</g>
</g>
</svg>
