<?xml version="1.0" encoding="utf-8"?>
<!-- Generator: Adobe Illustrator 18.1.0, SVG Export Plug-In . SVG Version: 6.00 Build 0)  -->
<svg version="1.1" xmlns="http://www.w3.org/2000/svg" xmlns:xlink="http://www.w3.org/1999/xlink" x="0px" y="0px"
	 viewBox="0 0 42 30" enable-background="new 0 0 42 30" xml:space="preserve">
<g id="Icons_1_">
	<g>
		<g>
			<defs>
				<rect id="SVGID_81_" x="-3" width="48" height="48"/>
			</defs>
			<clipPath id="SVGID_2_">
				<use xlink:href="#SVGID_81_"  overflow="visible"/>
			</clipPath>
			<g clip-path="url(#SVGID_2_)">
				<defs>
					<rect id="SVGID_83_" x="-3" width="48" height="48"/>
				</defs>
				<clipPath id="SVGID_4_">
					<use xlink:href="#SVGID_83_"  overflow="visible"/>
				</clipPath>
				<path clip-path="url(#SVGID_4_)" fill="#FFCE00" d="M21.662,5.947c-0.641-0.05-1.285-0.028-1.913,0.065
					c-3.898,0.576-6.948,3.845-7.252,7.772c-0.364,4.685,3.151,8.795,7.839,9.162c0.64,0.049,1.284,0.027,1.913-0.066
					c3.897-0.576,6.947-3.845,7.248-7.774c0.18-2.271-0.538-4.473-2.017-6.203C25.999,7.172,23.933,6.122,21.662,5.947"/>
				<path clip-path="url(#SVGID_4_)" fill="#FFCE00" d="M27.543,21.638l5.189,1.383l-2.894-4.523
					C29.286,19.701,28.503,20.764,27.543,21.638"/>
				<path clip-path="url(#SVGID_4_)" fill="#FFCE00" d="M30.694,13.539c0.05,0.547,0.062,1.101,0.018,1.66
					c-0.058,0.761-0.214,1.497-0.442,2.203l5.176-1.399L30.694,13.539z"/>
				<path clip-path="url(#SVGID_4_)" fill="#FFCE00" d="M28.951,8.816c0.762,1.073,1.294,2.272,1.57,3.537l3.773-3.782L28.951,8.816
					z"/>
				<path clip-path="url(#SVGID_4_)" fill="#FFCE00" d="M25.07,5.598c1.174,0.539,2.234,1.311,3.126,2.291l1.385-5.173L25.07,5.598z
					"/>
				<path clip-path="url(#SVGID_4_)" fill="#FFCE00" d="M21.755,4.732c0.759,0.058,1.494,0.212,2.202,0.436L22.563,0l-2.47,4.759
					C20.644,4.708,21.2,4.689,21.755,4.732"/>
				<path clip-path="url(#SVGID_4_)" fill="#FFCE00" d="M16.06,6.068c0.068-0.04,0.135-0.082,0.203-0.12
					c0.821-0.462,1.713-0.808,2.657-1.016l-3.792-3.779l0.245,5.353c0.05-0.035,0.104-0.064,0.154-0.098
					C15.701,6.289,15.878,6.176,16.06,6.068"/>
				<path clip-path="url(#SVGID_4_)" fill="#FFCE00" d="M13.124,8.747c0.022-0.03,0.043-0.06,0.065-0.09
					c0.173-0.232,0.355-0.456,0.547-0.672c0.018-0.019,0.034-0.04,0.051-0.059C14,7.691,14.22,7.463,14.454,7.25L9.272,5.866
					l2.884,4.515C12.425,9.804,12.752,9.259,13.124,8.747"/>
				<path clip-path="url(#SVGID_4_)" fill="#FFCE00" d="M11.282,13.689c0.059-0.759,0.214-1.494,0.442-2.199l-5.17,1.393
					l4.751,2.464C11.254,14.804,11.238,14.251,11.282,13.689"/>
				<path clip-path="url(#SVGID_4_)" fill="#FFCE00" d="M11.482,16.533l-3.776,3.784l5.346-0.244
					C12.306,19.022,11.766,17.822,11.482,16.533"/>
				<path clip-path="url(#SVGID_4_)" fill="#FFCE00" d="M13.803,20.995l-1.385,5.179l4.519-2.884
					C15.737,22.737,14.676,21.954,13.803,20.995"/>
				<path clip-path="url(#SVGID_4_)" fill="#FFCE00" d="M20.241,24.16c-0.765-0.06-1.499-0.216-2.2-0.44l1.393,5.173l2.473-4.761
					C21.354,24.184,20.797,24.203,20.241,24.16"/>
				<path clip-path="url(#SVGID_4_)" fill="#FFCE00" d="M25.942,22.821c-0.069,0.041-0.136,0.083-0.206,0.122
					c-0.821,0.462-1.712,0.809-2.656,1.016l3.792,3.778l-0.245-5.353c-0.052,0.037-0.109,0.067-0.162,0.103
					C26.295,22.604,26.12,22.715,25.942,22.821"/>
			</g>
		</g>
	</g>
</g>
<g id="Plus">
</g>
</svg>
