<svg xmlns="http://www.w3.org/2000/svg" xmlns:xlink="http://www.w3.org/1999/xlink" width="55" height="55"><defs><rect id="a" width="55" height="55"/></defs><clipPath id="b"><use xlink:href="#a" overflow="visible"/></clipPath><polygon clip-path="url(#b)" fill="#c63" points="28.204,46 30.8,46 27.205,55 27.248,55 35.198,44.304 32.421,44.263 34.698,40.281 31.186,40.185"/><g clip-path="url(#b)"><defs><rect id="c" width="55" height="55"/></defs><clipPath id="d"><use xlink:href="#c" overflow="visible"/></clipPath><path clip-path="url(#d)" fill="#61AAFB" d="M16.71 52.85l.809-1.72.904 1.661c.074.133.226.175.345.094l.044-.028c.121-.081.158-.251.086-.381l-.908-1.668 1.759.001c.136-.001.249-.125.251-.281l-.002-.054c.002-.152-.113-.281-.25-.279h-1.794l.83-1.761c.062-.134.013-.308-.111-.375l-.044-.029c-.122-.069-.276-.015-.34.122l-.807 1.718-.904-1.659c-.07-.132-.225-.174-.343-.096l-.045.029c-.12.081-.156.251-.086.383l.906 1.666-1.756.002c-.139 0-.254.124-.254.278l.002.055c-.002.153.113.282.25.28h1.791l-.822 1.759c-.065.134-.016.304.106.375l.044.027c.122.07.274.017.339-.119"/><path clip-path="url(#d)" fill="#61AAFB" d="M22.71 52.85l.809-1.72.904 1.661c.074.133.226.175.345.094l.044-.028c.121-.081.158-.251.086-.381l-.908-1.668 1.759.001c.136-.001.249-.125.251-.281l-.002-.054c.002-.152-.113-.281-.25-.279h-1.794l.83-1.761c.062-.134.013-.308-.111-.375l-.044-.029c-.122-.069-.276-.015-.34.122l-.807 1.718-.904-1.659c-.07-.132-.225-.174-.343-.096l-.045.029c-.12.081-.156.251-.086.383l.906 1.666-1.756.002c-.139 0-.254.124-.254.278l.002.055c-.002.153.113.282.25.28h1.791l-.822 1.759c-.065.134-.016.304.106.375l.044.027c.122.07.274.017.339-.119"/><path clip-path="url(#d)" fill="#61AAFB" d="M36.71 52.85l.809-1.72.904 1.661c.074.133.226.175.345.094l.044-.028c.121-.081.158-.251.086-.381l-.908-1.668 1.759.001c.136-.001.249-.125.251-.281l-.002-.054c.002-.152-.113-.281-.25-.279h-1.794l.83-1.761c.062-.134.013-.308-.111-.375l-.044-.029c-.122-.069-.276-.015-.34.122l-.807 1.718-.904-1.659c-.07-.132-.225-.174-.343-.096l-.045.029c-.12.081-.156.251-.086.383l.906 1.666-1.756.002c-.139 0-.254.124-.254.278l.002.055c-.002.153.113.282.25.28h1.791l-.822 1.759c-.065.134-.016.304.106.375l.044.027c.122.07.274.017.339-.119"/><path clip-path="url(#d)" fill="#61AAFB" d="M42.71 52.85l.809-1.72.904 1.661c.074.133.226.175.345.094l.044-.028c.121-.081.158-.251.086-.381l-.908-1.668 1.759.001c.136-.001.249-.125.251-.281l-.002-.054c.002-.152-.113-.281-.25-.279h-1.794l.83-1.761c.062-.134.013-.308-.111-.375l-.044-.029c-.122-.069-.276-.015-.34.122l-.807 1.718-.904-1.659c-.07-.132-.225-.174-.343-.096l-.045.029c-.12.081-.156.251-.086.383l.906 1.666-1.756.002c-.139 0-.254.124-.254.278l.002.055c-.002.153.113.282.25.28h1.791l-.822 1.759c-.065.134-.016.304.106.375l.044.027c.122.07.274.017.339-.119"/><path clip-path="url(#d)" fill="#61AAFB" d="M21.71 45.85l.809-1.72.904 1.661c.074.133.226.175.345.094l.044-.028c.121-.081.158-.251.086-.381l-.908-1.668 1.759.001c.136-.001.249-.125.251-.281l-.002-.054c.002-.152-.113-.281-.25-.279h-1.794l.83-1.761c.062-.134.013-.308-.111-.375l-.044-.029c-.122-.069-.276-.015-.34.122l-.807 1.718-.904-1.659c-.07-.132-.225-.174-.343-.096l-.045.029c-.12.081-.156.251-.086.383l.906 1.666-1.756.002c-.139 0-.254.124-.254.278l.002.055c-.002.153.113.282.25.28h1.791l-.822 1.759c-.065.134-.016.304.106.375l.044.027c.122.07.274.017.339-.119"/><path clip-path="url(#d)" fill="#61AAFB" d="M40.7 45.85l.809-1.72.904 1.661c.074.133.226.175.345.094l.044-.028c.121-.081.158-.251.086-.381l-.908-1.668 1.759.001c.136-.001.249-.125.251-.281l-.002-.054c.002-.152-.113-.281-.25-.279h-1.794l.83-1.761c.062-.134.013-.308-.111-.375l-.044-.029c-.122-.069-.276-.015-.34.122l-.807 1.718-.904-1.659c-.07-.132-.225-.174-.343-.096l-.045.029c-.12.081-.156.251-.086.383l.906 1.665-1.756.002c-.139 0-.254.124-.254.278l.002.055c-.002.153.113.282.25.28h1.791l-.822 1.759c-.065.134-.016.304.106.375l.044.027c.122.071.274.018.339-.118"/></g><defs><rect id="e" width="55" height="55"/></defs><clipPath id="f"><use xlink:href="#e" overflow="visible"/></clipPath><g clip-path="url(#f)"><defs><rect id="g" width="55" height="55"/></defs><clipPath id="h"><use xlink:href="#g" overflow="visible"/></clipPath><g clip-path="url(#h)"><defs><rect id="i" width="55" height="55"/></defs><clipPath id="j"><use xlink:href="#i" overflow="visible"/></clipPath><g opacity=".7" clip-path="url(#j)"><defs><rect id="k" x="1.25" y="1.631" width="52.375" height="3.987"/></defs><clipPath id="m"><use xlink:href="#k" overflow="visible"/></clipPath><defs><filter id="l" filterUnits="userSpaceOnUse" x="1.75" y="2.131" width="51.375" height="2.987"><feColorMatrix values="1 0 0 0 0 0 1 0 0 0 0 0 1 0 0 0 0 0 1 0"/></filter></defs><mask maskUnits="userSpaceOnUse" x="1.75" y="2.131" width="51.375" height="2.987" id="o"><g filter="url(#l)"><linearGradient id="n" gradientUnits="userSpaceOnUse" x1="-670.94" y1="-1.05" x2="-669.94" y2="-1.05" gradientTransform="matrix(52.375 0 0 -52.375 35141.75 -51.375)"><stop offset="0"/><stop offset=".036" stop-color="#2C2C2C"/><stop offset=".083" stop-color="#5D5D5D"/><stop offset=".132" stop-color="#888"/><stop offset=".183" stop-color="#ADADAD"/><stop offset=".236" stop-color="#CBCBCB"/><stop offset=".291" stop-color="#E2E2E2"/><stop offset=".351" stop-color="#F2F2F2"/><stop offset=".417" stop-color="#FCFCFC"/><stop offset=".504" stop-color="#fff"/><stop offset=".571" stop-color="#FBFBFB"/><stop offset=".634" stop-color="#F0F0F0"/><stop offset=".696" stop-color="#ddd"/><stop offset=".756" stop-color="#C2C2C2"/><stop offset=".815" stop-color="#A0A0A0"/><stop offset=".874" stop-color="#767676"/><stop offset=".933" stop-color="#434343"/><stop offset=".99" stop-color="#0B0B0B"/><stop offset="1"/></linearGradient><rect x="1.25" y="1.631" clip-path="url(#m)" fill="url(#n)" width="52.375" height="3.987"/></g></mask><linearGradient id="p" gradientUnits="userSpaceOnUse" x1="-670.94" y1="-1.05" x2="-669.94" y2="-1.05" gradientTransform="matrix(52.375 0 0 -52.375 35141.75 -51.375)"><stop offset="0" stop-color="#fff"/><stop offset=".013" stop-color="#FEFDFF"/><stop offset=".151" stop-color="#F1EDFF"/><stop offset=".304" stop-color="#EAE3FF"/><stop offset=".504" stop-color="#E8E0FF"/><stop offset=".686" stop-color="#EBE4FF"/><stop offset=".856" stop-color="#F3EFFF"/><stop offset="1" stop-color="#fff"/></linearGradient><path clip-path="url(#m)" mask="url(#o)" fill="url(#p)" d="M2.75 2.131c5.17.019 5.17 1.006 9.872.987 4.703.019 4.703-.968 9.874-.987 5.17.019 5.17 1.006 9.872.987 4.705.019 4.705-.968 9.878-.987 5.174.019 5.174 1.006 9.879.987.552 0 1 .448 1 1s-.448 1-1 1c-5.173-.019-5.173-1.005-9.879-.987-4.705-.019-4.705.968-9.878.987-5.17-.019-5.17-1.006-9.872-.987-4.703-.019-4.703.968-9.874.987-5.17-.018-5.17-1.006-9.872-.987-.552 0-1-.448-1-1s.448-1 1-1z"/></g><g opacity=".7" clip-path="url(#j)"><defs><rect id="q" x="1.25" y="7.827" width="52.375" height="3.987"/></defs><clipPath id="s"><use xlink:href="#q" overflow="visible"/></clipPath><defs><filter id="r" filterUnits="userSpaceOnUse" x="1.75" y="8.327" width="51.375" height="2.987"><feColorMatrix values="1 0 0 0 0 0 1 0 0 0 0 0 1 0 0 0 0 0 1 0"/></filter></defs><mask maskUnits="userSpaceOnUse" x="1.75" y="8.327" width="51.375" height="2.987" id="u"><g filter="url(#r)"><linearGradient id="t" gradientUnits="userSpaceOnUse" x1="-670.94" y1="-1.05" x2="-669.94" y2="-1.05" gradientTransform="matrix(52.375 0 0 -52.375 35141.75 -45.188)"><stop offset="0"/><stop offset=".036" stop-color="#2C2C2C"/><stop offset=".083" stop-color="#5D5D5D"/><stop offset=".132" stop-color="#888"/><stop offset=".183" stop-color="#ADADAD"/><stop offset=".236" stop-color="#CBCBCB"/><stop offset=".291" stop-color="#E2E2E2"/><stop offset=".351" stop-color="#F2F2F2"/><stop offset=".417" stop-color="#FCFCFC"/><stop offset=".504" stop-color="#fff"/><stop offset=".571" stop-color="#FBFBFB"/><stop offset=".634" stop-color="#F0F0F0"/><stop offset=".696" stop-color="#ddd"/><stop offset=".756" stop-color="#C2C2C2"/><stop offset=".815" stop-color="#A0A0A0"/><stop offset=".874" stop-color="#767676"/><stop offset=".933" stop-color="#434343"/><stop offset=".99" stop-color="#0B0B0B"/><stop offset="1"/></linearGradient><rect x="1.25" y="7.827" clip-path="url(#s)" fill="url(#t)" width="52.375" height="3.987"/></g></mask><linearGradient id="v" gradientUnits="userSpaceOnUse" x1="-670.94" y1="-1.05" x2="-669.94" y2="-1.05" gradientTransform="matrix(52.375 0 0 -52.375 35141.75 -45.188)"><stop offset="0" stop-color="#fff"/><stop offset=".013" stop-color="#FEFDFF"/><stop offset=".151" stop-color="#F1EDFF"/><stop offset=".304" stop-color="#EAE3FF"/><stop offset=".504" stop-color="#E8E0FF"/><stop offset=".686" stop-color="#EBE4FF"/><stop offset=".856" stop-color="#F3EFFF"/><stop offset="1" stop-color="#fff"/></linearGradient><path clip-path="url(#s)" mask="url(#u)" fill="url(#v)" d="M2.75 8.327c5.17.019 5.17 1.006 9.872.987 4.703.019 4.703-.968 9.874-.987 5.17.019 5.17 1.006 9.872.987 4.705.019 4.705-.968 9.878-.987 5.174.019 5.174 1.006 9.879.987.552 0 1 .448 1 1s-.448 1-1 1c-5.173-.019-5.173-1.005-9.879-.987-4.705-.019-4.705.968-9.878.987-5.17-.019-5.17-1.006-9.872-.987-4.703-.019-4.703.968-9.874.987-5.17-.019-5.17-1.006-9.872-.987-.552 0-1-.448-1-1s.448-1 1-1z"/></g><g opacity=".7" clip-path="url(#j)"><defs><rect id="w" x="1.25" y="14.023" width="52.375" height="3.987"/></defs><clipPath id="y"><use xlink:href="#w" overflow="visible"/></clipPath><defs><filter id="x" filterUnits="userSpaceOnUse" x="1.75" y="14.523" width="51.375" height="2.987"><feColorMatrix values="1 0 0 0 0 0 1 0 0 0 0 0 1 0 0 0 0 0 1 0"/></filter></defs><mask maskUnits="userSpaceOnUse" x="1.75" y="14.523" width="51.375" height="2.987" id="A"><g filter="url(#x)"><linearGradient id="z" gradientUnits="userSpaceOnUse" x1="-670.94" y1="-1.049" x2="-669.94" y2="-1.049" gradientTransform="matrix(52.375 0 0 -52.375 35141.75 -38.969)"><stop offset="0"/><stop offset=".036" stop-color="#2C2C2C"/><stop offset=".083" stop-color="#5D5D5D"/><stop offset=".132" stop-color="#888"/><stop offset=".183" stop-color="#ADADAD"/><stop offset=".236" stop-color="#CBCBCB"/><stop offset=".291" stop-color="#E2E2E2"/><stop offset=".351" stop-color="#F2F2F2"/><stop offset=".417" stop-color="#FCFCFC"/><stop offset=".504" stop-color="#fff"/><stop offset=".571" stop-color="#FBFBFB"/><stop offset=".634" stop-color="#F0F0F0"/><stop offset=".696" stop-color="#ddd"/><stop offset=".756" stop-color="#C2C2C2"/><stop offset=".815" stop-color="#A0A0A0"/><stop offset=".874" stop-color="#767676"/><stop offset=".933" stop-color="#434343"/><stop offset=".99" stop-color="#0B0B0B"/><stop offset="1"/></linearGradient><rect x="1.25" y="14.023" clip-path="url(#y)" fill="url(#z)" width="52.375" height="3.987"/></g></mask><linearGradient id="B" gradientUnits="userSpaceOnUse" x1="-670.94" y1="-1.05" x2="-669.94" y2="-1.05" gradientTransform="matrix(52.375 0 0 -52.375 35141.75 -38.969)"><stop offset="0" stop-color="#fff"/><stop offset=".013" stop-color="#FEFDFF"/><stop offset=".151" stop-color="#F1EDFF"/><stop offset=".304" stop-color="#EAE3FF"/><stop offset=".504" stop-color="#E8E0FF"/><stop offset=".686" stop-color="#EBE4FF"/><stop offset=".856" stop-color="#F3EFFF"/><stop offset="1" stop-color="#fff"/></linearGradient><path clip-path="url(#y)" mask="url(#A)" fill="url(#B)" d="M2.75 14.523c5.17.019 5.17 1.006 9.872.987 4.703.019 4.703-.968 9.874-.987 5.17.019 5.17 1.006 9.872.987 4.705.019 4.705-.968 9.878-.987 5.174.019 5.174 1.006 9.879.987.552 0 1 .448 1 1s-.448 1-1 1c-5.173-.019-5.173-1.005-9.879-.987-4.705-.019-4.705.968-9.878.987-5.17-.019-5.17-1.006-9.872-.987-4.703-.019-4.703.968-9.874.987-5.17-.019-5.17-1.006-9.872-.987-.552 0-1-.448-1-1s.448-1 1-1z"/></g><g opacity=".7" clip-path="url(#j)"><defs><rect id="C" x="1.25" y="20.219" width="52.375" height="3.987"/></defs><clipPath id="E"><use xlink:href="#C" overflow="visible"/></clipPath><defs><filter id="D" filterUnits="userSpaceOnUse" x="1.75" y="20.719" width="51.375" height="2.987"><feColorMatrix values="1 0 0 0 0 0 1 0 0 0 0 0 1 0 0 0 0 0 1 0"/></filter></defs><mask maskUnits="userSpaceOnUse" x="1.75" y="20.719" width="51.375" height="2.987" id="G"><g filter="url(#D)"><linearGradient id="F" gradientUnits="userSpaceOnUse" x1="-670.94" y1="-1.05" x2="-669.94" y2="-1.05" gradientTransform="matrix(52.375 0 0 -52.375 35141.75 -32.781)"><stop offset="0"/><stop offset=".036" stop-color="#2C2C2C"/><stop offset=".083" stop-color="#5D5D5D"/><stop offset=".132" stop-color="#888"/><stop offset=".183" stop-color="#ADADAD"/><stop offset=".236" stop-color="#CBCBCB"/><stop offset=".291" stop-color="#E2E2E2"/><stop offset=".351" stop-color="#F2F2F2"/><stop offset=".417" stop-color="#FCFCFC"/><stop offset=".504" stop-color="#fff"/><stop offset=".571" stop-color="#FBFBFB"/><stop offset=".634" stop-color="#F0F0F0"/><stop offset=".696" stop-color="#ddd"/><stop offset=".756" stop-color="#C2C2C2"/><stop offset=".815" stop-color="#A0A0A0"/><stop offset=".874" stop-color="#767676"/><stop offset=".933" stop-color="#434343"/><stop offset=".99" stop-color="#0B0B0B"/><stop offset="1"/></linearGradient><rect x="1.25" y="20.219" clip-path="url(#E)" fill="url(#F)" width="52.375" height="3.987"/></g></mask><linearGradient id="H" gradientUnits="userSpaceOnUse" x1="-670.94" y1="-1.05" x2="-669.94" y2="-1.05" gradientTransform="matrix(52.375 0 0 -52.375 35141.75 -32.781)"><stop offset="0" stop-color="#fff"/><stop offset=".013" stop-color="#FEFDFF"/><stop offset=".151" stop-color="#F1EDFF"/><stop offset=".304" stop-color="#EAE3FF"/><stop offset=".504" stop-color="#E8E0FF"/><stop offset=".686" stop-color="#EBE4FF"/><stop offset=".856" stop-color="#F3EFFF"/><stop offset="1" stop-color="#fff"/></linearGradient><path clip-path="url(#E)" mask="url(#G)" fill="url(#H)" d="M2.75 20.719c5.17.019 5.17 1.006 9.872.987 4.703.019 4.703-.968 9.874-.987 5.17.019 5.17 1.006 9.872.987 4.705.019 4.705-.968 9.878-.987 5.174.019 5.174 1.006 9.879.987.552 0 1 .448 1 1s-.448 1-1 1c-5.173-.019-5.173-1.005-9.879-.987-4.705-.019-4.705.968-9.878.987-5.17-.019-5.17-1.006-9.872-.987-4.703-.019-4.703.968-9.874.987-5.17-.019-5.17-1.006-9.872-.987-.552 0-1-.448-1-1s.448-1 1-1z"/></g><g opacity=".7" clip-path="url(#j)"><defs><rect id="I" x="1.25" y="26.415" width="52.375" height="3.988"/></defs><clipPath id="K"><use xlink:href="#I" overflow="visible"/></clipPath><defs><filter id="J" filterUnits="userSpaceOnUse" x="1.75" y="26.915" width="51.375" height="2.988"><feColorMatrix values="1 0 0 0 0 0 1 0 0 0 0 0 1 0 0 0 0 0 1 0"/></filter></defs><mask maskUnits="userSpaceOnUse" x="1.75" y="26.915" width="51.375" height="2.988" id="M"><g filter="url(#J)"><linearGradient id="L" gradientUnits="userSpaceOnUse" x1="-670.94" y1="-1.05" x2="-669.94" y2="-1.05" gradientTransform="matrix(52.375 0 0 -52.375 35141.75 -26.594)"><stop offset="0"/><stop offset=".036" stop-color="#2C2C2C"/><stop offset=".083" stop-color="#5D5D5D"/><stop offset=".132" stop-color="#888"/><stop offset=".183" stop-color="#ADADAD"/><stop offset=".236" stop-color="#CBCBCB"/><stop offset=".291" stop-color="#E2E2E2"/><stop offset=".351" stop-color="#F2F2F2"/><stop offset=".417" stop-color="#FCFCFC"/><stop offset=".504" stop-color="#fff"/><stop offset=".571" stop-color="#FBFBFB"/><stop offset=".634" stop-color="#F0F0F0"/><stop offset=".696" stop-color="#ddd"/><stop offset=".756" stop-color="#C2C2C2"/><stop offset=".815" stop-color="#A0A0A0"/><stop offset=".874" stop-color="#767676"/><stop offset=".933" stop-color="#434343"/><stop offset=".99" stop-color="#0B0B0B"/><stop offset="1"/></linearGradient><rect x="1.25" y="26.415" clip-path="url(#K)" fill="url(#L)" width="52.375" height="3.988"/></g></mask><linearGradient id="N" gradientUnits="userSpaceOnUse" x1="-670.94" y1="-1.05" x2="-669.94" y2="-1.05" gradientTransform="matrix(52.375 0 0 -52.375 35141.75 -26.594)"><stop offset="0" stop-color="#fff"/><stop offset=".013" stop-color="#FEFDFF"/><stop offset=".151" stop-color="#F1EDFF"/><stop offset=".304" stop-color="#EAE3FF"/><stop offset=".504" stop-color="#E8E0FF"/><stop offset=".686" stop-color="#EBE4FF"/><stop offset=".856" stop-color="#F3EFFF"/><stop offset="1" stop-color="#fff"/></linearGradient><path clip-path="url(#K)" mask="url(#M)" fill="url(#N)" d="M2.75 26.915c5.17.019 5.17 1.007 9.872.988 4.703.019 4.703-.969 9.874-.988 5.17.019 5.17 1.007 9.872.988 4.705.019 4.705-.969 9.878-.988 5.174.019 5.174 1.007 9.879.988.552 0 1 .447 1 1 0 .552-.448 1-1 1-5.173-.019-5.173-1.007-9.879-.988-4.705-.019-4.705.969-9.878.988-5.171-.019-5.171-1.007-9.872-.988-4.703-.019-4.703.969-9.874.988-5.17-.019-5.17-1.007-9.872-.988-.552 0-1-.448-1-1s.448-1 1-1z"/></g><g opacity=".7" clip-path="url(#j)"><defs><rect id="O" x="1.25" y="32.609" width="52.375" height="3.988"/></defs><clipPath id="Q"><use xlink:href="#O" overflow="visible"/></clipPath><defs><filter id="P" filterUnits="userSpaceOnUse" x="1.75" y="33.109" width="51.375" height="2.988"><feColorMatrix values="1 0 0 0 0 0 1 0 0 0 0 0 1 0 0 0 0 0 1 0"/></filter></defs><mask maskUnits="userSpaceOnUse" x="1.75" y="33.109" width="51.375" height="2.988" id="S"><g filter="url(#P)"><linearGradient id="R" gradientUnits="userSpaceOnUse" x1="-670.94" y1="-1.05" x2="-669.94" y2="-1.05" gradientTransform="matrix(52.375 0 0 -52.375 35141.75 -20.406)"><stop offset="0"/><stop offset=".036" stop-color="#2C2C2C"/><stop offset=".083" stop-color="#5D5D5D"/><stop offset=".132" stop-color="#888"/><stop offset=".183" stop-color="#ADADAD"/><stop offset=".236" stop-color="#CBCBCB"/><stop offset=".291" stop-color="#E2E2E2"/><stop offset=".351" stop-color="#F2F2F2"/><stop offset=".417" stop-color="#FCFCFC"/><stop offset=".504" stop-color="#fff"/><stop offset=".571" stop-color="#FBFBFB"/><stop offset=".634" stop-color="#F0F0F0"/><stop offset=".696" stop-color="#ddd"/><stop offset=".756" stop-color="#C2C2C2"/><stop offset=".815" stop-color="#A0A0A0"/><stop offset=".874" stop-color="#767676"/><stop offset=".933" stop-color="#434343"/><stop offset=".99" stop-color="#0B0B0B"/><stop offset="1"/></linearGradient><rect x="1.25" y="32.609" clip-path="url(#Q)" fill="url(#R)" width="52.375" height="3.988"/></g></mask><linearGradient id="T" gradientUnits="userSpaceOnUse" x1="-670.94" y1="-1.05" x2="-669.94" y2="-1.05" gradientTransform="matrix(52.375 0 0 -52.375 35141.75 -20.406)"><stop offset="0" stop-color="#fff"/><stop offset=".013" stop-color="#FEFDFF"/><stop offset=".151" stop-color="#F1EDFF"/><stop offset=".304" stop-color="#EAE3FF"/><stop offset=".504" stop-color="#E8E0FF"/><stop offset=".686" stop-color="#EBE4FF"/><stop offset=".856" stop-color="#F3EFFF"/><stop offset="1" stop-color="#fff"/></linearGradient><path clip-path="url(#Q)" mask="url(#S)" fill="url(#T)" d="M2.75 33.109c5.17.019 5.17 1.007 9.872.988 4.703.019 4.703-.969 9.874-.988 5.17.019 5.17 1.007 9.872.988 4.705.019 4.705-.969 9.878-.988 5.174.019 5.174 1.007 9.879.988.552 0 1 .448 1 1 0 .553-.448 1-1 1-5.173-.019-5.173-1.006-9.879-.988-4.705-.019-4.705.969-9.878.988-5.171-.019-5.171-1.006-9.872-.988-4.703-.019-4.703.969-9.874.988-5.17-.019-5.17-1.006-9.872-.988-.552 0-1-.448-1-1s.448-1 1-1z"/></g><g opacity=".7" clip-path="url(#j)"><defs><rect id="U" x="1.25" y="38.806" width="52.375" height="3.988"/></defs><clipPath id="W"><use xlink:href="#U" overflow="visible"/></clipPath><defs><filter id="V" filterUnits="userSpaceOnUse" x="1.75" y="39.306" width="51.375" height="2.988"><feColorMatrix values="1 0 0 0 0 0 1 0 0 0 0 0 1 0 0 0 0 0 1 0"/></filter></defs><mask maskUnits="userSpaceOnUse" x="1.75" y="39.306" width="51.375" height="2.988" id="Y"><g filter="url(#V)"><linearGradient id="X" gradientUnits="userSpaceOnUse" x1="-670.94" y1="-1.05" x2="-669.94" y2="-1.05" gradientTransform="matrix(52.375 0 0 -52.375 35141.75 -14.188)"><stop offset="0"/><stop offset=".036" stop-color="#2C2C2C"/><stop offset=".083" stop-color="#5D5D5D"/><stop offset=".132" stop-color="#888"/><stop offset=".183" stop-color="#ADADAD"/><stop offset=".236" stop-color="#CBCBCB"/><stop offset=".291" stop-color="#E2E2E2"/><stop offset=".351" stop-color="#F2F2F2"/><stop offset=".417" stop-color="#FCFCFC"/><stop offset=".504" stop-color="#fff"/><stop offset=".571" stop-color="#FBFBFB"/><stop offset=".634" stop-color="#F0F0F0"/><stop offset=".696" stop-color="#ddd"/><stop offset=".756" stop-color="#C2C2C2"/><stop offset=".815" stop-color="#A0A0A0"/><stop offset=".874" stop-color="#767676"/><stop offset=".933" stop-color="#434343"/><stop offset=".99" stop-color="#0B0B0B"/><stop offset="1"/></linearGradient><rect x="1.25" y="38.806" clip-path="url(#W)" fill="url(#X)" width="52.375" height="3.988"/></g></mask><linearGradient id="Z" gradientUnits="userSpaceOnUse" x1="-670.94" y1="-1.05" x2="-669.94" y2="-1.05" gradientTransform="matrix(52.375 0 0 -52.375 35141.75 -14.188)"><stop offset="0" stop-color="#fff"/><stop offset=".013" stop-color="#FEFDFF"/><stop offset=".151" stop-color="#F1EDFF"/><stop offset=".304" stop-color="#EAE3FF"/><stop offset=".504" stop-color="#E8E0FF"/><stop offset=".686" stop-color="#EBE4FF"/><stop offset=".856" stop-color="#F3EFFF"/><stop offset="1" stop-color="#fff"/></linearGradient><path clip-path="url(#W)" mask="url(#Y)" fill="url(#Z)" d="M2.75 39.306c5.17.019 5.17 1.007 9.872.988 4.703.019 4.703-.969 9.874-.988 5.17.019 5.17 1.007 9.872.988 4.705.019 4.705-.969 9.878-.988 5.174.019 5.174 1.007 9.879.988.552 0 1 .447 1 1 0 .552-.448 1-1 1-5.173-.019-5.173-1.006-9.879-.988-4.705-.019-4.705.969-9.878.988-5.171-.019-5.171-1.007-9.872-.988-4.703-.019-4.703.969-9.874.988-5.17-.019-5.17-1.007-9.872-.988-.552 0-1-.448-1-1s.448-1 1-1z"/></g><g opacity=".7" clip-path="url(#j)"><defs><rect id="aa" x="1.25" y="45.001" width="52.375" height="3.988"/></defs><clipPath id="ac"><use xlink:href="#aa" overflow="visible"/></clipPath><defs><filter id="ab" filterUnits="userSpaceOnUse" x="1.75" y="45.501" width="51.375" height="2.988"><feColorMatrix values="1 0 0 0 0 0 1 0 0 0 0 0 1 0 0 0 0 0 1 0"/></filter></defs><mask maskUnits="userSpaceOnUse" x="1.75" y="45.501" width="51.375" height="2.988" id="ae"><g filter="url(#ab)"><linearGradient id="ad" gradientUnits="userSpaceOnUse" x1="-670.94" y1="-1.05" x2="-669.94" y2="-1.05" gradientTransform="matrix(52.375 0 0 -52.375 35141.75 -8)"><stop offset="0"/><stop offset=".036" stop-color="#2C2C2C"/><stop offset=".083" stop-color="#5D5D5D"/><stop offset=".132" stop-color="#888"/><stop offset=".183" stop-color="#ADADAD"/><stop offset=".236" stop-color="#CBCBCB"/><stop offset=".291" stop-color="#E2E2E2"/><stop offset=".351" stop-color="#F2F2F2"/><stop offset=".417" stop-color="#FCFCFC"/><stop offset=".504" stop-color="#fff"/><stop offset=".571" stop-color="#FBFBFB"/><stop offset=".634" stop-color="#F0F0F0"/><stop offset=".696" stop-color="#ddd"/><stop offset=".756" stop-color="#C2C2C2"/><stop offset=".815" stop-color="#A0A0A0"/><stop offset=".874" stop-color="#767676"/><stop offset=".933" stop-color="#434343"/><stop offset=".99" stop-color="#0B0B0B"/><stop offset="1"/></linearGradient><rect x="1.25" y="45.001" clip-path="url(#ac)" fill="url(#ad)" width="52.375" height="3.988"/></g></mask><linearGradient id="af" gradientUnits="userSpaceOnUse" x1="-670.94" y1="-1.05" x2="-669.94" y2="-1.05" gradientTransform="matrix(52.375 0 0 -52.375 35141.75 -8)"><stop offset="0" stop-color="#fff"/><stop offset=".013" stop-color="#FEFDFF"/><stop offset=".151" stop-color="#F1EDFF"/><stop offset=".304" stop-color="#EAE3FF"/><stop offset=".504" stop-color="#E8E0FF"/><stop offset=".686" stop-color="#EBE4FF"/><stop offset=".856" stop-color="#F3EFFF"/><stop offset="1" stop-color="#fff"/></linearGradient><path clip-path="url(#ac)" mask="url(#ae)" fill="url(#af)" d="M2.75 45.501c5.17.019 5.17 1.007 9.872.988 4.703.019 4.703-.969 9.874-.988 5.17.019 5.17 1.007 9.872.988 4.705.019 4.705-.969 9.878-.988 5.174.019 5.174 1.007 9.879.988.552 0 1 .448 1 1 0 .553-.448 1-1 1-5.173-.019-5.173-1.006-9.879-.988-4.705-.019-4.705.969-9.878.988-5.171-.019-5.171-1.006-9.872-.988-4.703-.019-4.703.969-9.874.988-5.17-.019-5.17-1.006-9.872-.988-.552 0-1-.448-1-1s.448-1 1-1z"/></g></g></g></svg>