<?xml version="1.0" encoding="utf-8"?>
<!-- Generator: Adobe Illustrator 18.1.0, SVG Export Plug-In . SVG Version: 6.00 Build 0)  -->
<svg version="1.1" xmlns="http://www.w3.org/2000/svg" xmlns:xlink="http://www.w3.org/1999/xlink" x="0px" y="0px"
	 viewBox="0 0 42 42" enable-background="new 0 0 42 42" xml:space="preserve">
<g id="Moon">
</g>
<g id="Icons">
	<g>
		<g>
			<defs>
				<rect id="SVGID_109_" x="-3" width="48" height="48"/>
			</defs>
			<clipPath id="SVGID_2_">
				<use xlink:href="#SVGID_109_"  overflow="visible"/>
			</clipPath>
			<g clip-path="url(#SVGID_2_)">
				<defs>
					<rect id="SVGID_111_" x="-3" width="48" height="48"/>
				</defs>
				<clipPath id="SVGID_4_">
					<use xlink:href="#SVGID_111_"  overflow="visible"/>
				</clipPath>
				<path clip-path="url(#SVGID_4_)" fill="#D5DCE2" d="M33.264,18.865l-0.687-0.316l-0.056-0.755
					c-0.18-2.431-2.233-4.335-4.674-4.335c-0.431,0-0.867,0.061-1.297,0.182l-0.754,0.211l-0.532-0.573
					c-1.18-1.269-2.851-1.997-4.585-1.997c-2.969,0-5.55,2.116-6.134,5.032l-0.137,0.683l-0.648,0.258
					c-2.188,0.867-3.658,3.027-3.658,5.376c0,3.189,2.596,5.785,5.786,5.785h15.294c2.756,0,4.998-2.245,4.998-5.005
					C36.18,21.465,35.036,19.681,33.264,18.865"/>
				<path clip-path="url(#SVGID_4_)" fill="#7694B4" d="M29.251,10.137C27.199,7.548,25.915,3.052,28.805,0
					c-1.112,0.319-2.185,0.85-3.151,1.611c-1.648,1.297-2.607,3.075-2.971,4.957c-0.163,1.309-0.193,2.556-0.161,3.756
					c1.375,0.352,2.641,1.084,3.621,2.137l0.035,0.038l0.048-0.014c0.536-0.15,1.081-0.226,1.621-0.226
					c3.019,0,5.555,2.323,5.848,5.31c1.165-0.225,2.299-0.696,3.328-1.506c0.968-0.76,1.735-1.676,2.306-2.684
					C35.682,15.469,31.549,13.036,29.251,10.137"/>
			</g>
		</g>
	</g>
	<g>
		<g>
			<defs>
				<rect id="SVGID_227_" x="1" y="-1" width="48" height="48"/>
			</defs>
			<clipPath id="SVGID_6_">
				<use xlink:href="#SVGID_227_"  overflow="visible"/>
			</clipPath>
			<g clip-path="url(#SVGID_6_)">
				<defs>
					<rect id="SVGID_229_" x="11.497" y="29.375" width="6" height="6"/>
				</defs>
				<clipPath id="SVGID_8_">
					<use xlink:href="#SVGID_229_"  overflow="visible"/>
				</clipPath>
				<path clip-path="url(#SVGID_8_)" fill-rule="evenodd" clip-rule="evenodd" fill="#009EFF" d="M15.523,33.775
					c-1.01,1.95-3.316,0.674-2.346-1.208C14,30.967,15.978,30,15.978,30S16.322,32.226,15.523,33.775"/>
			</g>
			<g clip-path="url(#SVGID_6_)">
				<defs>
					<rect id="SVGID_231_" x="19.267" y="29.375" width="6" height="6"/>
				</defs>
				<clipPath id="SVGID_10_">
					<use xlink:href="#SVGID_231_"  overflow="visible"/>
				</clipPath>
				<path clip-path="url(#SVGID_10_)" fill-rule="evenodd" clip-rule="evenodd" fill="#009EFF" d="M23.293,33.775
					c-1.01,1.95-3.316,0.674-2.346-1.208C21.77,30.967,23.748,30,23.748,30S24.092,32.226,23.293,33.775"/>
			</g>
			<g clip-path="url(#SVGID_6_)">
				<defs>
					<rect id="SVGID_233_" x="27.039" y="29.375" width="6" height="6"/>
				</defs>
				<clipPath id="SVGID_12_">
					<use xlink:href="#SVGID_233_"  overflow="visible"/>
				</clipPath>
				<path clip-path="url(#SVGID_12_)" fill-rule="evenodd" clip-rule="evenodd" fill="#009EFF" d="M31.065,33.775
					c-1.01,1.95-3.316,0.674-2.346-1.208C29.542,30.967,31.52,30,31.52,30S31.864,32.226,31.065,33.775"/>
			</g>
			<g clip-path="url(#SVGID_6_)">
				<defs>
					<rect id="SVGID_235_" x="7.63" y="35.185" width="5.999" height="5.999"/>
				</defs>
				<clipPath id="SVGID_14_">
					<use xlink:href="#SVGID_235_"  overflow="visible"/>
				</clipPath>
				<path clip-path="url(#SVGID_14_)" fill-rule="evenodd" clip-rule="evenodd" fill="#009EFF" d="M11.655,39.585
					c-1.01,1.95-3.316,0.674-2.346-1.208c0.823-1.6,2.801-2.567,2.801-2.567S12.454,38.036,11.655,39.585"/>
			</g>
			<g clip-path="url(#SVGID_6_)">
				<defs>
					<rect id="SVGID_237_" x="15.401" y="35.185" width="6" height="5.999"/>
				</defs>
				<clipPath id="SVGID_16_">
					<use xlink:href="#SVGID_237_"  overflow="visible"/>
				</clipPath>
				<path clip-path="url(#SVGID_16_)" fill-rule="evenodd" clip-rule="evenodd" fill="#009EFF" d="M19.426,39.585
					c-1.01,1.95-3.316,0.674-2.346-1.208c0.823-1.6,2.801-2.567,2.801-2.567S20.225,38.036,19.426,39.585"/>
			</g>
			<g clip-path="url(#SVGID_6_)">
				<defs>
					<rect id="SVGID_239_" x="23.171" y="35.185" width="6" height="5.999"/>
				</defs>
				<clipPath id="SVGID_18_">
					<use xlink:href="#SVGID_239_"  overflow="visible"/>
				</clipPath>
				<path clip-path="url(#SVGID_18_)" fill-rule="evenodd" clip-rule="evenodd" fill="#009EFF" d="M27.197,39.585
					c-1.01,1.95-3.316,0.674-2.346-1.208c0.823-1.6,2.801-2.567,2.801-2.567S27.996,38.036,27.197,39.585"/>
			</g>
		</g>
	</g>
</g>
</svg>
