<?xml version="1.0" encoding="utf-8"?>
<!-- Generator: Adobe Illustrator 18.1.0, SVG Export Plug-In . SVG Version: 6.00 Build 0)  -->
<svg version="1.1" xmlns="http://www.w3.org/2000/svg" xmlns:xlink="http://www.w3.org/1999/xlink" x="0px" y="0px"
	 viewBox="0 0 42 42" enable-background="new 0 0 42 42" xml:space="preserve">
<g id="Moon">
</g>
<g id="Icons">
	<g>
		<g>
			<defs>
				<rect id="SVGID_65_" x="-3" width="48" height="48"/>
			</defs>
			<clipPath id="SVGID_2_">
				<use xlink:href="#SVGID_65_"  overflow="visible"/>
			</clipPath>
			<g clip-path="url(#SVGID_2_)">
				<defs>
					<rect id="SVGID_67_" x="-3" width="48" height="48"/>
				</defs>
				<clipPath id="SVGID_4_">
					<use xlink:href="#SVGID_67_"  overflow="visible"/>
				</clipPath>
				<path clip-path="url(#SVGID_4_)" fill="#D5DCE2" d="M33.264,18.865l-0.687-0.316l-0.056-0.755
					c-0.18-2.431-2.233-4.335-4.674-4.335c-0.431,0-0.867,0.061-1.297,0.182l-0.754,0.211l-0.532-0.573
					c-1.18-1.269-2.851-1.997-4.585-1.997c-2.969,0-5.55,2.116-6.134,5.032l-0.137,0.683l-0.648,0.258
					c-2.188,0.867-3.658,3.027-3.658,5.376c0,3.189,2.596,5.785,5.786,5.785h15.294c2.756,0,4.998-2.245,4.998-5.005
					C36.18,21.465,35.036,19.681,33.264,18.865"/>
				<path clip-path="url(#SVGID_4_)" fill="#7694B4" d="M29.251,10.137C27.199,7.548,25.915,3.052,28.805,0
					c-1.112,0.319-2.185,0.85-3.151,1.611c-1.648,1.297-2.607,3.075-2.971,4.957c-0.163,1.309-0.193,2.556-0.161,3.756
					c1.375,0.352,2.641,1.084,3.621,2.137l0.035,0.038l0.048-0.014c0.536-0.15,1.081-0.226,1.621-0.226
					c3.019,0,5.555,2.323,5.848,5.31c1.165-0.225,2.299-0.696,3.328-1.506c0.968-0.76,1.735-1.676,2.306-2.684
					C35.682,15.469,31.549,13.036,29.251,10.137"/>
			</g>
		</g>
	</g>
	<g>
		<g>
			<defs>
				<rect id="SVGID_267_" y="-1" width="48" height="48"/>
			</defs>
			<clipPath id="SVGID_6_">
				<use xlink:href="#SVGID_267_"  overflow="visible"/>
			</clipPath>
			<polygon clip-path="url(#SVGID_6_)" fill-rule="evenodd" clip-rule="evenodd" fill="#FF7700" points="24.465,32.428 
				22.315,32.395 24.078,29.312 21.357,29.335 19.048,33.935 21.058,33.935 18.236,40.906 			"/>
			<g clip-path="url(#SVGID_6_)">
				<defs>
					<rect id="SVGID_269_" x="11.063" y="29.375" width="5.999" height="6"/>
				</defs>
				<clipPath id="SVGID_8_">
					<use xlink:href="#SVGID_269_"  overflow="visible"/>
				</clipPath>
				<path clip-path="url(#SVGID_8_)" fill="#38C0E0" d="M16.338,32.641l-1.723-0.422l1.26-1.249c0.098-0.099,0.1-0.26,0-0.359
					l-0.037-0.036c-0.098-0.101-0.26-0.101-0.359-0.002l-1.262,1.251l-0.42-1.726c-0.033-0.136-0.172-0.22-0.309-0.186l-0.049,0.012
					c-0.136,0.032-0.222,0.173-0.189,0.308l0.432,1.761l-1.762-0.43c-0.135-0.033-0.275,0.05-0.309,0.187L11.6,31.799
					c-0.036,0.138,0.051,0.276,0.187,0.308l1.721,0.421l-1.258,1.248c-0.099,0.1-0.099,0.261-0.002,0.361l0.037,0.036
					c0.1,0.1,0.26,0.1,0.36,0.002l1.261-1.254l0.424,1.729c0.033,0.136,0.172,0.221,0.307,0.186l0.049-0.011
					c0.138-0.034,0.224-0.172,0.189-0.308l-0.43-1.761l1.76,0.429c0.135,0.034,0.274-0.051,0.307-0.186l0.013-0.049
					C16.559,32.814,16.473,32.674,16.338,32.641"/>
			</g>
			<g clip-path="url(#SVGID_6_)">
				<defs>
					<rect id="SVGID_271_" x="26.26" y="29.375" width="5.999" height="6"/>
				</defs>
				<clipPath id="SVGID_10_">
					<use xlink:href="#SVGID_271_"  overflow="visible"/>
				</clipPath>
				<path clip-path="url(#SVGID_10_)" fill-rule="evenodd" clip-rule="evenodd" fill="#009EFF" d="M30.285,33.775
					c-1.01,1.95-3.316,0.674-2.346-1.208C28.762,30.967,30.74,30,30.74,30S31.084,32.226,30.285,33.775"/>
			</g>
		</g>
	</g>
</g>
</svg>
