<?xml version="1.0" encoding="utf-8"?>
<!-- Generator: Adobe Illustrator 18.1.0, SVG Export Plug-In . SVG Version: 6.00 Build 0)  -->
<svg version="1.1" xmlns="http://www.w3.org/2000/svg" xmlns:xlink="http://www.w3.org/1999/xlink" x="0px" y="0px"
	 viewBox="0 0 42 42" enable-background="new 0 0 42 42" xml:space="preserve">
<g id="Moon">
</g>
<g id="Icons">
	<g>
		<g>
			<defs>
				<rect id="SVGID_33_" x="-3" width="48" height="48"/>
			</defs>
			<clipPath id="SVGID_2_">
				<use xlink:href="#SVGID_33_"  overflow="visible"/>
			</clipPath>
			<g clip-path="url(#SVGID_2_)">
				<defs>
					<rect id="SVGID_35_" x="-3" width="48" height="48"/>
				</defs>
				<clipPath id="SVGID_4_">
					<use xlink:href="#SVGID_35_"  overflow="visible"/>
				</clipPath>
				<path clip-path="url(#SVGID_4_)" fill="#D5DCE2" d="M33.264,18.865l-0.687-0.316l-0.056-0.755
					c-0.18-2.431-2.233-4.335-4.674-4.335c-0.431,0-0.867,0.061-1.297,0.182l-0.754,0.211l-0.532-0.573
					c-1.18-1.269-2.851-1.997-4.585-1.997c-2.969,0-5.55,2.116-6.134,5.032l-0.137,0.683l-0.648,0.258
					c-2.188,0.867-3.658,3.027-3.658,5.376c0,3.189,2.596,5.785,5.786,5.785h15.294c2.756,0,4.998-2.245,4.998-5.005
					C36.18,21.465,35.036,19.681,33.264,18.865"/>
				<path clip-path="url(#SVGID_4_)" fill="#7694B4" d="M29.251,10.137C27.199,7.548,25.915,3.052,28.805,0
					c-1.112,0.319-2.185,0.85-3.151,1.611c-1.648,1.297-2.607,3.075-2.971,4.957c-0.163,1.309-0.193,2.556-0.161,3.756
					c1.375,0.352,2.641,1.084,3.621,2.137l0.035,0.038l0.048-0.014c0.536-0.15,1.081-0.226,1.621-0.226
					c3.019,0,5.555,2.323,5.848,5.31c1.165-0.225,2.299-0.696,3.328-1.506c0.968-0.76,1.735-1.676,2.306-2.684
					C35.682,15.469,31.549,13.036,29.251,10.137"/>
			</g>
		</g>
	</g>
	<g>
		<g>
			<defs>
				<rect id="SVGID_209_" x="1" y="-1" width="48" height="48"/>
			</defs>
			<clipPath id="SVGID_6_">
				<use xlink:href="#SVGID_209_"  overflow="visible"/>
			</clipPath>
			<polygon clip-path="url(#SVGID_6_)" fill-rule="evenodd" clip-rule="evenodd" fill="#FF7800" points="25.465,32.428 
				23.315,32.395 25.078,29.312 22.357,29.335 20.048,33.935 22.058,33.935 19.236,40.906 			"/>
		</g>
	</g>
</g>
</svg>
