<?xml version="1.0" encoding="utf-8"?>
<!-- Generator: Adobe Illustrator 18.1.0, SVG Export Plug-In . SVG Version: 6.00 Build 0)  -->
<svg version="1.1" xmlns="http://www.w3.org/2000/svg" xmlns:xlink="http://www.w3.org/1999/xlink" x="0px" y="0px"
	 viewBox="0 0 42 42" enable-background="new 0 0 42 42" xml:space="preserve">
<g id="Moon">
</g>
<g id="Icons">
	<g>
		<g>
			<defs>
				<rect id="SVGID_345_" x="-2" y="-1" width="48" height="48"/>
			</defs>
			<clipPath id="SVGID_2_">
				<use xlink:href="#SVGID_345_"  overflow="visible"/>
			</clipPath>
			<polygon clip-path="url(#SVGID_2_)" fill-rule="evenodd" clip-rule="evenodd" fill="#FF7700" points="24.465,32.428 
				22.315,32.395 24.078,29.312 21.357,29.334 19.048,33.935 21.058,33.935 18.236,40.905 			"/>
			<g clip-path="url(#SVGID_2_)">
				<defs>
					<rect id="SVGID_347_" x="12.046" y="29.375" width="5.999" height="6"/>
				</defs>
				<clipPath id="SVGID_4_">
					<use xlink:href="#SVGID_347_"  overflow="visible"/>
				</clipPath>
				<path clip-path="url(#SVGID_4_)" fill-rule="evenodd" clip-rule="evenodd" fill="#009EFF" d="M16.071,33.775
					c-1.01,1.95-3.316,0.674-2.346-1.208c0.823-1.6,2.801-2.567,2.801-2.567S16.87,32.226,16.071,33.775"/>
			</g>
			<g clip-path="url(#SVGID_2_)">
				<defs>
					<rect id="SVGID_349_" x="26.135" y="29.375" width="6" height="6"/>
				</defs>
				<clipPath id="SVGID_6_">
					<use xlink:href="#SVGID_349_"  overflow="visible"/>
				</clipPath>
				<path clip-path="url(#SVGID_6_)" fill-rule="evenodd" clip-rule="evenodd" fill="#009EFF" d="M30.16,33.775
					c-1.01,1.95-3.316,0.674-2.346-1.208c0.823-1.6,2.801-2.567,2.801-2.567S30.959,32.226,30.16,33.775"/>
			</g>
		</g>
	</g>
	<g>
		<g>
			<defs>
				<rect id="SVGID_519_" x="-2.995" y="0.001" transform="matrix(-1 -0.003 0.003 -1 41.9395 48.0644)" width="48" height="48"/>
			</defs>
			<clipPath id="SVGID_8_">
				<use xlink:href="#SVGID_519_"  overflow="visible"/>
			</clipPath>
			<g clip-path="url(#SVGID_8_)">
				<defs>
					<rect id="SVGID_521_" x="-2.995" y="0.001" transform="matrix(-1 -0.003 0.003 -1 41.9395 48.0644)" width="48" height="48"/>
				</defs>
				<clipPath id="SVGID_10_">
					<use xlink:href="#SVGID_521_"  overflow="visible"/>
				</clipPath>
				<path clip-path="url(#SVGID_10_)" fill="#D5DCE2" d="M33.285,18.902l-0.686-0.318l-0.054-0.754
					c-0.173-2.433-2.22-4.343-4.661-4.35c-0.431-0.001-0.867,0.059-1.298,0.178l-0.755,0.209l-0.53-0.575
					c-1.176-1.272-2.845-2.005-4.579-2.011c-2.969-0.009-5.556,2.1-6.149,5.014l-0.138,0.683l-0.65,0.256
					c-2.191,0.861-3.667,3.016-3.674,5.365c-0.009,3.189,2.579,5.793,5.769,5.802l15.294,0.045c2.756,0.008,5.005-2.23,5.013-4.99
					C36.193,21.511,35.055,19.723,33.285,18.902"/>
				<path clip-path="url(#SVGID_10_)" fill="#D5DCE2" d="M8.912,22.595c0.008-2.836,1.79-5.44,4.434-6.478L13.39,16.1l0.008-0.044
					c0.706-3.473,3.788-5.985,7.329-5.974c2.066,0.006,4.054,0.879,5.456,2.395l0.035,0.038l0.049-0.014
					c0.379-0.105,0.764-0.16,1.149-0.19c0.032-0.407-0.146-1.054-0.188-1.167c-0.387-1.037-1.137-1.982-2.319-2.633
					C23.64,7.816,22.22,7.84,21.018,8.411c-0.053-0.033-0.087-0.053-0.087-0.053l-0.495-0.536c-0.879-0.951-1.974-1.703-3.215-2.072
					c-4.136-1.23-8.175,1.404-8.976,5.344l-0.157,0.77l-0.522,0.205C5.22,12.992,3.468,15.11,3.243,17.62
					c-0.276,3.089,1.62,5.783,4.332,6.74c0,0,0.744,0.207,1.669,0.375C9.028,24.06,8.91,23.341,8.912,22.595"/>
				<path clip-path="url(#SVGID_10_)" fill="#7694B4" d="M29.298,10.163c-2.044-2.595-3.315-7.095-0.416-10.138
					c-1.113,0.316-2.188,0.844-3.156,1.602c-1.652,1.292-2.616,3.067-2.986,4.948c-0.01,0.076-0.014,0.15-0.022,0.224
					c0.058-0.002,0.117-0.013,0.175-0.012c0.91,0.003,1.782,0.23,2.592,0.676c1.357,0.746,2.348,1.875,2.866,3.266
					c0.063,0.168,0.297,0.968,0.26,1.625c0.339,0.044,0.666,0.116,0.984,0.216c0.007,0.002,0.015,0.004,0.023,0.006
					c0.299,0.095,0.584,0.212,0.861,0.352c0.038,0.019,0.076,0.038,0.115,0.058c0.24,0.128,0.469,0.268,0.688,0.427
					c0.078,0.055,0.151,0.113,0.225,0.172c0.173,0.138,0.338,0.279,0.495,0.435c0.114,0.111,0.216,0.232,0.321,0.352
					c0.105,0.123,0.21,0.244,0.304,0.375c0.135,0.185,0.253,0.382,0.366,0.583c0.049,0.088,0.103,0.172,0.147,0.262
					c0.133,0.267,0.24,0.547,0.332,0.835c0.013,0.042,0.031,0.081,0.043,0.123c0.099,0.341,0.17,0.695,0.204,1.059
					c1.166-0.221,2.302-0.689,3.332-1.495c0.97-0.757,1.74-1.671,2.314-2.677C35.713,15.514,31.587,13.068,29.298,10.163"/>
			</g>
		</g>
	</g>
</g>
</svg>
