<?xml version="1.0" encoding="utf-8"?>
<!-- Generator: Adobe Illustrator 18.1.0, SVG Export Plug-In . SVG Version: 6.00 Build 0)  -->
<svg version="1.1" xmlns="http://www.w3.org/2000/svg" xmlns:xlink="http://www.w3.org/1999/xlink" x="0px" y="0px"
	 viewBox="0 0 42 42" enable-background="new 0 0 42 42" xml:space="preserve">
<g id="Moon">
</g>
<g id="Icons">
	<g>
		<g>
			<defs>
				<rect id="SVGID_45_" x="-2" width="48" height="48"/>
			</defs>
			<clipPath id="SVGID_2_">
				<use xlink:href="#SVGID_45_"  overflow="visible"/>
			</clipPath>
			<g clip-path="url(#SVGID_2_)">
				<defs>
					<rect id="SVGID_47_" x="-2" width="48" height="48"/>
				</defs>
				<clipPath id="SVGID_4_">
					<use xlink:href="#SVGID_47_"  overflow="visible"/>
				</clipPath>
				<path clip-path="url(#SVGID_4_)" fill="#D5DCE2" d="M34.265,18.865l-0.687-0.316l-0.056-0.754
					c-0.18-2.432-2.233-4.336-4.674-4.336c-0.431,0-0.867,0.062-1.297,0.182l-0.754,0.211l-0.532-0.573
					c-1.18-1.269-2.851-1.997-4.585-1.997c-2.969,0-5.55,2.116-6.134,5.032l-0.136,0.683l-0.649,0.258
					c-2.188,0.867-3.658,3.027-3.658,5.376c0,3.189,2.596,5.785,5.786,5.785h15.294c2.756,0,4.998-2.245,4.998-5.005
					C37.181,21.465,36.037,19.681,34.265,18.865"/>
				<path clip-path="url(#SVGID_4_)" fill="#D5DCE2" d="M9.903,22.63c0-2.836,1.774-5.445,4.415-6.491l0.043-0.017l0.008-0.044
					c0.696-3.475,3.77-5.996,7.311-5.996c2.066,0,4.057,0.867,5.463,2.379l0.035,0.038l0.049-0.014
					c0.379-0.106,0.764-0.162,1.148-0.193c0.031-0.407-0.149-1.054-0.191-1.166c-0.39-1.036-1.143-1.979-2.327-2.626
					c-1.27-0.693-2.69-0.665-3.891-0.09c-0.053-0.033-0.087-0.053-0.087-0.053l-0.497-0.535C20.5,6.874,19.403,6.125,18.161,5.76
					c-4.14-1.218-8.171,1.428-8.96,5.371l-0.155,0.77l-0.521,0.207c-2.343,0.93-4.089,3.053-4.306,5.564
					c-0.267,3.09,1.637,5.778,4.352,6.727c0,0,0.745,0.205,1.67,0.37C10.023,24.094,9.903,23.376,9.903,22.63"/>
				<path clip-path="url(#SVGID_4_)" fill="#7694B4" d="M30.251,10.137C28.199,7.548,26.915,3.052,29.805,0
					c-1.112,0.319-2.185,0.85-3.151,1.611c-1.648,1.297-2.607,3.075-2.971,4.957c-0.01,0.076-0.014,0.15-0.021,0.224
					c0.058-0.002,0.117-0.013,0.175-0.013c0.91,0,1.783,0.225,2.594,0.668c1.359,0.742,2.354,1.868,2.876,3.257
					c0.063,0.168,0.3,0.967,0.265,1.624c0.339,0.043,0.666,0.114,0.985,0.213c0.007,0.002,0.015,0.004,0.023,0.006
					c0.299,0.094,0.585,0.21,0.862,0.349c0.038,0.019,0.076,0.038,0.115,0.058c0.24,0.127,0.47,0.267,0.689,0.425
					c0.078,0.055,0.151,0.113,0.226,0.171c0.173,0.137,0.339,0.278,0.496,0.434c0.114,0.111,0.217,0.231,0.322,0.351
					c0.105,0.123,0.211,0.243,0.305,0.374c0.136,0.185,0.254,0.381,0.368,0.582c0.049,0.088,0.104,0.172,0.148,0.262
					c0.134,0.267,0.242,0.546,0.334,0.834c0.013,0.042,0.031,0.081,0.043,0.123c0.1,0.341,0.172,0.694,0.207,1.058
					c1.165-0.224,2.3-0.696,3.328-1.505c0.968-0.76,1.735-1.676,2.306-2.684C36.682,15.469,32.549,13.036,30.251,10.137"/>
			</g>
		</g>
	</g>
	<g>
		<g>
			<defs>
				<rect id="SVGID_455_" y="-1" width="48" height="48"/>
			</defs>
			<clipPath id="SVGID_6_">
				<use xlink:href="#SVGID_455_"  overflow="visible"/>
			</clipPath>
			<g clip-path="url(#SVGID_6_)">
				<defs>
					<rect id="SVGID_457_" x="26.27" y="29.375" width="6" height="6"/>
				</defs>
				<clipPath id="SVGID_8_">
					<use xlink:href="#SVGID_457_"  overflow="visible"/>
				</clipPath>
				<path clip-path="url(#SVGID_8_)" fill="#38C0E0" d="M31.546,32.641l-1.723-0.422l1.26-1.249c0.098-0.099,0.1-0.26,0-0.359
					l-0.037-0.036c-0.098-0.101-0.26-0.101-0.359-0.002l-1.262,1.251l-0.42-1.726c-0.033-0.136-0.172-0.22-0.309-0.186l-0.049,0.012
					c-0.136,0.032-0.222,0.173-0.189,0.308l0.432,1.761l-1.762-0.43c-0.135-0.033-0.275,0.05-0.309,0.187l-0.011,0.049
					c-0.036,0.138,0.051,0.276,0.187,0.308l1.721,0.421l-1.258,1.248c-0.099,0.1-0.099,0.261-0.002,0.361l0.037,0.036
					c0.1,0.1,0.26,0.1,0.36,0.002l1.261-1.254l0.424,1.729c0.033,0.136,0.172,0.221,0.307,0.186l0.049-0.011
					c0.138-0.034,0.224-0.172,0.189-0.308l-0.43-1.761l1.76,0.429c0.135,0.034,0.274-0.051,0.307-0.186l0.013-0.049
					C31.767,32.814,31.681,32.674,31.546,32.641"/>
			</g>
			<g clip-path="url(#SVGID_6_)">
				<defs>
					<rect id="SVGID_459_" x="11.599" y="29.375" width="6" height="6"/>
				</defs>
				<clipPath id="SVGID_10_">
					<use xlink:href="#SVGID_459_"  overflow="visible"/>
				</clipPath>
				<path clip-path="url(#SVGID_10_)" fill-rule="evenodd" clip-rule="evenodd" fill="#009EFF" d="M15.625,33.775
					c-1.01,1.95-3.316,0.674-2.346-1.208C14.102,30.967,16.08,30,16.08,30S16.424,32.226,15.625,33.775"/>
			</g>
			<polygon clip-path="url(#SVGID_6_)" fill-rule="evenodd" clip-rule="evenodd" fill="#FF7700" points="24.465,32.428 
				22.315,32.395 24.078,29.312 21.357,29.335 19.048,33.935 21.058,33.935 18.236,40.906 			"/>
			<g clip-path="url(#SVGID_6_)">
				<defs>
					<rect id="SVGID_461_" x="10.819" y="35.375" width="6" height="5.999"/>
				</defs>
				<clipPath id="SVGID_12_">
					<use xlink:href="#SVGID_461_"  overflow="visible"/>
				</clipPath>
				<path clip-path="url(#SVGID_12_)" fill="#38C0E0" d="M16.095,38.641l-1.723-0.422l1.26-1.249c0.098-0.099,0.1-0.26,0-0.359
					l-0.037-0.036c-0.098-0.101-0.26-0.101-0.359-0.002l-1.262,1.251l-0.42-1.726c-0.033-0.136-0.172-0.22-0.309-0.186l-0.049,0.012
					c-0.136,0.032-0.222,0.173-0.189,0.308l0.432,1.761l-1.762-0.43c-0.135-0.033-0.275,0.05-0.309,0.187l-0.011,0.049
					c-0.036,0.138,0.051,0.276,0.187,0.308l1.721,0.421l-1.258,1.248c-0.099,0.1-0.099,0.261-0.002,0.361l0.037,0.036
					c0.1,0.1,0.26,0.1,0.36,0.002l1.261-1.254l0.424,1.729c0.033,0.136,0.172,0.221,0.307,0.186l0.049-0.011
					c0.138-0.034,0.224-0.172,0.189-0.308l-0.43-1.761l1.76,0.429c0.135,0.034,0.274-0.051,0.307-0.186l0.013-0.049
					C16.316,38.814,16.23,38.674,16.095,38.641"/>
			</g>
			<g clip-path="url(#SVGID_6_)">
				<defs>
					<rect id="SVGID_463_" x="24.177" y="35.375" width="5.999" height="5.999"/>
				</defs>
				<clipPath id="SVGID_14_">
					<use xlink:href="#SVGID_463_"  overflow="visible"/>
				</clipPath>
				<path clip-path="url(#SVGID_14_)" fill-rule="evenodd" clip-rule="evenodd" fill="#009EFF" d="M28.202,39.775
					c-1.01,1.95-3.316,0.674-2.346-1.208c0.823-1.6,2.801-2.567,2.801-2.567S29.001,38.226,28.202,39.775"/>
			</g>
		</g>
	</g>
</g>
</svg>
