<?xml version="1.0" encoding="utf-8"?>
<!-- Generator: Adobe Illustrator 18.1.0, SVG Export Plug-In . SVG Version: 6.00 Build 0)  -->
<svg version="1.1" xmlns="http://www.w3.org/2000/svg" xmlns:xlink="http://www.w3.org/1999/xlink" x="0px" y="0px"
	 viewBox="0 0 42 32" enable-background="new 0 0 42 32" xml:space="preserve">
<g id="Moon">
	<g>
		<g>
			<defs>
				<rect id="SVGID_1_" x="-3" width="48" height="48"/>
			</defs>
			<clipPath id="SVGID_2_">
				<use xlink:href="#SVGID_1_"  overflow="visible"/>
			</clipPath>
			<polygon clip-path="url(#SVGID_2_)" fill="#609ABC" points="33.984,1.331 34.667,2.715 36.195,2.937 35.089,4.015 35.35,5.536 
				33.984,4.818 32.618,5.536 32.879,4.015 31.773,2.937 33.301,2.715 			"/>
			<polygon clip-path="url(#SVGID_2_)" fill="#609ABC" points="5.718,12.018 6.401,13.402 7.929,13.624 6.823,14.702 7.084,16.223 
				5.718,15.505 4.352,16.223 4.613,14.702 3.507,13.624 5.035,13.402 			"/>
			<polygon clip-path="url(#SVGID_2_)" fill="#609ABC" points="37.151,22.677 37.566,23.517 38.493,23.652 37.822,24.306 
				37.98,25.229 37.151,24.793 36.322,25.229 36.48,24.306 35.809,23.652 36.736,23.517 			"/>
			<polygon clip-path="url(#SVGID_2_)" fill="#609ABC" points="15.913,22.414 17.018,24.654 19.49,25.013 17.702,26.757 
				18.124,29.218 15.913,28.056 13.702,29.218 14.124,26.757 12.336,25.013 14.808,24.654 			"/>
			<g clip-path="url(#SVGID_2_)">
				<defs>
					<rect id="SVGID_3_" x="-3" width="48" height="48"/>
				</defs>
				<clipPath id="SVGID_4_">
					<use xlink:href="#SVGID_3_"  overflow="visible"/>
				</clipPath>
				<path clip-path="url(#SVGID_4_)" fill="#7596B6" d="M22.174,11.161C19.589,7.497,19.591,3.18,21.657,0
					C17.76,1.409,14.97,5.13,14.97,9.513c0,5.592,4.533,10.125,10.125,10.125c3.483,0,6.555-1.761,8.377-4.439
					C29.333,16.574,24.762,14.83,22.174,11.161"/>
			</g>
		</g>
	</g>
</g>
<g id="Icons">
</g>
</svg>
