<?xml version="1.0" encoding="utf-8"?>
<!-- Generator: Adobe Illustrator 18.1.0, SVG Export Plug-In . SVG Version: 6.00 Build 0)  -->
<svg version="1.1" xmlns="http://www.w3.org/2000/svg" xmlns:xlink="http://www.w3.org/1999/xlink" x="0px" y="0px"
	 viewBox="0 0 42 42" enable-background="new 0 0 42 42" xml:space="preserve">
<g id="Grid">
</g>
<g id="P">
</g>
<g id="Fog">
	<g>
		<g>
			<defs>
				<rect id="SVGID_37_" x="0" y="-1" width="48" height="48"/>
			</defs>
			<clipPath id="SVGID_2_">
				<use xlink:href="#SVGID_37_"  overflow="visible"/>
			</clipPath>
			<g clip-path="url(#SVGID_2_)">
				<defs>
					<rect id="SVGID_39_" x="13.303" y="29.375" width="6" height="6"/>
				</defs>
				<clipPath id="SVGID_4_">
					<use xlink:href="#SVGID_39_"  overflow="visible"/>
				</clipPath>
				<path clip-path="url(#SVGID_4_)" fill="#38C0E0" d="M18.579,32.641l-1.723-0.422l1.26-1.249c0.098-0.099,0.1-0.26,0-0.359
					l-0.037-0.036c-0.098-0.101-0.26-0.101-0.359-0.002l-1.262,1.251l-0.42-1.726c-0.033-0.136-0.172-0.22-0.309-0.186l-0.049,0.012
					c-0.136,0.032-0.222,0.173-0.189,0.308l0.432,1.761l-1.762-0.43c-0.135-0.033-0.275,0.05-0.309,0.187l-0.011,0.049
					c-0.036,0.138,0.051,0.276,0.187,0.308l1.721,0.421l-1.258,1.248c-0.099,0.1-0.099,0.261-0.002,0.361l0.037,0.036
					c0.1,0.1,0.26,0.1,0.36,0.002l1.261-1.254l0.424,1.729c0.033,0.136,0.172,0.221,0.307,0.186l0.049-0.011
					c0.138-0.034,0.224-0.172,0.189-0.308l-0.43-1.761l1.76,0.429c0.135,0.034,0.274-0.051,0.307-0.186l0.013-0.049
					C18.8,32.814,18.714,32.674,18.579,32.641"/>
			</g>
			<g clip-path="url(#SVGID_2_)">
				<defs>
					<rect id="SVGID_41_" x="25.053" y="29.375" width="6" height="6"/>
				</defs>
				<clipPath id="SVGID_6_">
					<use xlink:href="#SVGID_41_"  overflow="visible"/>
				</clipPath>
				<path clip-path="url(#SVGID_6_)" fill="#38C0E0" d="M30.329,32.641l-1.723-0.422l1.26-1.249c0.098-0.099,0.1-0.26,0-0.359
					l-0.037-0.036c-0.098-0.101-0.26-0.101-0.359-0.002l-1.262,1.251l-0.42-1.726c-0.033-0.136-0.172-0.22-0.309-0.186l-0.049,0.012
					c-0.136,0.032-0.222,0.173-0.189,0.308l0.432,1.761l-1.762-0.43c-0.135-0.033-0.275,0.05-0.309,0.187l-0.011,0.049
					c-0.036,0.138,0.051,0.276,0.187,0.308l1.721,0.421l-1.258,1.248c-0.099,0.1-0.099,0.261-0.002,0.361l0.037,0.036
					c0.1,0.1,0.26,0.1,0.36,0.002l1.261-1.254l0.424,1.729c0.033,0.136,0.172,0.221,0.307,0.186l0.049-0.011
					c0.138-0.034,0.224-0.172,0.189-0.308l-0.43-1.761l1.76,0.429c0.135,0.034,0.274-0.051,0.307-0.186l0.013-0.049
					C30.55,32.814,30.464,32.674,30.329,32.641"/>
			</g>
			<g clip-path="url(#SVGID_2_)">
				<defs>
					<rect id="SVGID_43_" x="18.607" y="35.375" width="6" height="5.999"/>
				</defs>
				<clipPath id="SVGID_8_">
					<use xlink:href="#SVGID_43_"  overflow="visible"/>
				</clipPath>
				<path clip-path="url(#SVGID_8_)" fill="#38C0E0" d="M23.883,38.641l-1.723-0.422l1.26-1.249c0.098-0.099,0.1-0.26,0-0.359
					l-0.037-0.036c-0.098-0.101-0.26-0.101-0.359-0.002l-1.262,1.251l-0.42-1.726c-0.033-0.136-0.172-0.22-0.309-0.186l-0.049,0.012
					c-0.136,0.032-0.222,0.173-0.189,0.308l0.432,1.761l-1.762-0.43c-0.135-0.033-0.275,0.05-0.309,0.187l-0.011,0.049
					c-0.036,0.138,0.051,0.276,0.187,0.308l1.721,0.421l-1.258,1.248c-0.099,0.1-0.099,0.261-0.002,0.361l0.037,0.036
					c0.1,0.1,0.26,0.1,0.36,0.002l1.261-1.254l0.424,1.729c0.033,0.136,0.172,0.221,0.307,0.186l0.049-0.011
					c0.138-0.034,0.224-0.172,0.189-0.308l-0.43-1.761l1.76,0.429c0.135,0.034,0.274-0.051,0.307-0.186l0.013-0.049
					C24.104,38.814,24.018,38.674,23.883,38.641"/>
			</g>
		</g>
	</g>
	<g>
		<g>
			<defs>
				<rect id="SVGID_105_" width="42" height="42"/>
			</defs>
			<clipPath id="SVGID_10_">
				<use xlink:href="#SVGID_105_"  overflow="visible"/>
			</clipPath>
			<g clip-path="url(#SVGID_10_)">
				<defs>
					<rect id="SVGID_107_" width="42" height="42"/>
				</defs>
				<clipPath id="SVGID_12_">
					<use xlink:href="#SVGID_107_"  overflow="visible"/>
				</clipPath>
				<g clip-path="url(#SVGID_12_)">
					<defs>
						<rect id="SVGID_109_" width="42" height="42"/>
					</defs>
					<clipPath id="SVGID_14_">
						<use xlink:href="#SVGID_109_"  overflow="visible"/>
					</clipPath>
					<g opacity="0.2" clip-path="url(#SVGID_14_)">
						<g>
							<defs>
								<rect id="SVGID_111_" x="4.195" y="20.171" width="31.108" height="1.225"/>
							</defs>
							<clipPath id="SVGID_16_">
								<use xlink:href="#SVGID_111_"  overflow="visible"/>
							</clipPath>
							
								<line clip-path="url(#SVGID_16_)" fill="none" stroke="#C9C9C9" stroke-width="1.4" stroke-linecap="round" stroke-linejoin="round" stroke-miterlimit="10" x1="4.808" y1="20.784" x2="34.691" y2="20.784"/>
						</g>
					</g>
					<g opacity="0.2" clip-path="url(#SVGID_14_)">
						<g>
							<defs>
								<rect id="SVGID_113_" x="8.494" y="26.691" width="31.108" height="1.225"/>
							</defs>
							<clipPath id="SVGID_18_">
								<use xlink:href="#SVGID_113_"  overflow="visible"/>
							</clipPath>
							
								<line clip-path="url(#SVGID_18_)" fill="none" stroke="#C9C9C9" stroke-width="1.4" stroke-linecap="round" stroke-linejoin="round" stroke-miterlimit="10" x1="9.106" y1="27.304" x2="38.99" y2="27.304"/>
						</g>
					</g>
					<g opacity="0.2" clip-path="url(#SVGID_14_)">
						<g>
							<defs>
								<rect id="SVGID_115_" x="2.724" y="16.911" width="31.108" height="1.225"/>
							</defs>
							<clipPath id="SVGID_20_">
								<use xlink:href="#SVGID_115_"  overflow="visible"/>
							</clipPath>
							
								<line clip-path="url(#SVGID_20_)" fill="none" stroke="#C9C9C9" stroke-width="1.4" stroke-linecap="round" stroke-linejoin="round" stroke-miterlimit="10" x1="3.336" y1="17.524" x2="33.219" y2="17.524"/>
						</g>
					</g>
					<g opacity="0.2" clip-path="url(#SVGID_14_)">
						<g>
							<defs>
								<rect id="SVGID_117_" x="7.022" y="23.431" width="31.108" height="1.225"/>
							</defs>
							<clipPath id="SVGID_22_">
								<use xlink:href="#SVGID_117_"  overflow="visible"/>
							</clipPath>
							
								<line clip-path="url(#SVGID_22_)" fill="none" stroke="#C9C9C9" stroke-width="1.4" stroke-linecap="round" stroke-linejoin="round" stroke-miterlimit="10" x1="7.635" y1="24.044" x2="37.518" y2="24.044"/>
						</g>
					</g>
					<g opacity="0.2" clip-path="url(#SVGID_14_)">
						<g>
							<defs>
								<rect id="SVGID_119_" x="4.195" y="7.132" width="31.108" height="1.225"/>
							</defs>
							<clipPath id="SVGID_24_">
								<use xlink:href="#SVGID_119_"  overflow="visible"/>
							</clipPath>
							
								<line clip-path="url(#SVGID_24_)" fill="none" stroke="#C9C9C9" stroke-width="1.4" stroke-linecap="round" stroke-linejoin="round" stroke-miterlimit="10" x1="4.808" y1="7.744" x2="34.691" y2="7.744"/>
						</g>
					</g>
					<g opacity="0.2" clip-path="url(#SVGID_14_)">
						<g>
							<defs>
								<rect id="SVGID_121_" x="8.494" y="13.652" width="31.108" height="1.225"/>
							</defs>
							<clipPath id="SVGID_26_">
								<use xlink:href="#SVGID_121_"  overflow="visible"/>
							</clipPath>
							
								<line clip-path="url(#SVGID_26_)" fill="none" stroke="#C9C9C9" stroke-width="1.4" stroke-linecap="round" stroke-linejoin="round" stroke-miterlimit="10" x1="9.106" y1="14.264" x2="38.99" y2="14.264"/>
						</g>
					</g>
					<g opacity="0.2" clip-path="url(#SVGID_14_)">
						<g>
							<defs>
								<rect id="SVGID_123_" x="2.724" y="3.872" width="31.108" height="1.225"/>
							</defs>
							<clipPath id="SVGID_28_">
								<use xlink:href="#SVGID_123_"  overflow="visible"/>
							</clipPath>
							
								<line clip-path="url(#SVGID_28_)" fill="none" stroke="#C9C9C9" stroke-width="1.4" stroke-linecap="round" stroke-linejoin="round" stroke-miterlimit="10" x1="3.336" y1="4.484" x2="33.219" y2="4.484"/>
						</g>
					</g>
					<g opacity="0.2" clip-path="url(#SVGID_14_)">
						<g>
							<defs>
								<rect id="SVGID_125_" x="7.022" y="10.392" width="31.108" height="1.225"/>
							</defs>
							<clipPath id="SVGID_30_">
								<use xlink:href="#SVGID_125_"  overflow="visible"/>
							</clipPath>
							
								<line clip-path="url(#SVGID_30_)" fill="none" stroke="#C9C9C9" stroke-width="1.4" stroke-linecap="round" stroke-linejoin="round" stroke-miterlimit="10" x1="7.635" y1="11.004" x2="37.518" y2="11.004"/>
						</g>
					</g>
					<g opacity="0.2" clip-path="url(#SVGID_14_)">
						<g>
							<defs>
								<rect id="SVGID_127_" x="2.724" y="29.951" width="31.108" height="1.225"/>
							</defs>
							<clipPath id="SVGID_32_">
								<use xlink:href="#SVGID_127_"  overflow="visible"/>
							</clipPath>
							
								<line clip-path="url(#SVGID_32_)" fill="none" stroke="#C9C9C9" stroke-width="1.4" stroke-linecap="round" stroke-linejoin="round" stroke-miterlimit="10" x1="3.336" y1="30.564" x2="33.219" y2="30.564"/>
						</g>
					</g>
				</g>
			</g>
		</g>
	</g>
</g>
</svg>
